<?xml version="1.0" encoding="UTF-8" standalone="no"?>
<svg width="200px" height="164px" viewBox="0 0 200 164" version="1.1" xmlns="http://www.w3.org/2000/svg" xmlns:xlink="http://www.w3.org/1999/xlink">
    <!-- Generator: Sketch 3.7 (28169) - http://www.bohemiancoding.com/sketch -->
    <title>Combined Shape</title>
    <desc>Created with Sketch.</desc>
    <defs></defs>
    <g id="Page-1"  fill-rule="evenodd">
        <path d="M172.5,40.2096259 L172.5,39.6550103 L172.222222,39.6550103 L172.222222,39.1003948 L171.944444,39.1003948 L171.944444,38.5457793 L171.666667,38.5457793 L171.666667,37.713856 L171.388889,37.713856 L171.388889,37.1592405 L171.111111,37.1592405 L171.111111,36.6046249 L170.833333,36.6046249 L170.833333,36.0500094 L170.555556,36.0500094 L170.555556,35.4953939 L170.277778,35.4953939 L170.277778,34.9407783 L170,34.9407783 L170,34.3861628 L169.722222,34.3861628 L169.722222,33.8315473 L169.444444,33.8315473 L169.444444,33.2769318 L169.166667,33.2769318 L169.166667,32.7223162 L168.888889,32.7223162 L168.888889,32.1677007 L168.611111,32.1677007 L168.611111,31.6130852 L168.333333,31.6130852 L168.333333,31.0584696 L168.055556,31.0584696 L168.055556,30.5038541 L167.777778,30.5038541 L167.777778,29.9492386 L167.5,29.9492386 L167.5,29.394623 L167.222222,29.394623 L167.222222,28.8400075 L166.944444,28.8400075 L166.944444,28.285392 L166.666667,28.285392 L166.666667,27.7307765 L166.388889,27.7307765 L166.388889,27.1761609 L166.111111,27.1761609 L166.111111,26.6215454 L165.833333,26.6215454 L165.833333,25.7896221 L165.555556,25.7896221 L165.555556,25.2350066 L165.277778,25.2350066 L165.277778,24.6803911 L165,24.6803911 L165,24.1257755 L164.722222,24.1257755 L164.722222,23.57116 L164.444444,23.57116 L164.444444,23.0165445 L164.166667,23.0165445 L164.166667,22.4619289 L163.888889,22.4619289 L163.888889,21.9073134 L163.611111,21.9073134 L163.611111,21.3526979 L163.333333,21.3526979 L163.333333,20.7980823 L163.055556,20.7980823 L163.055556,20.2434668 L162.777778,20.2434668 L162.777778,19.6888513 L162.5,19.6888513 L162.5,19.1342358 L162.222222,19.1342358 L162.222222,18.5796202 L161.944444,18.5796202 L161.944444,18.0250047 L161.666667,18.0250047 L161.666667,17.4703892 L161.388889,17.4703892 L161.388889,16.9157736 L161.111111,16.9157736 L161.111111,16.3611581 L160.833333,16.3611581 L160.833333,15.8065426 L160.555556,15.8065426 L160.555556,15.2519271 L160.277778,15.2519271 L160.277778,14.6973115 L160,14.6973115 L160,13.8653882 L159.722222,13.8653882 L159.722222,13.3107727 L159.444444,13.3107727 L159.444444,12.7561572 L159.166667,12.7561572 L159.166667,12.2015416 L158.888889,12.2015416 L158.888889,11.6469261 L158.611111,11.6469261 L158.611111,11.0923106 L158.333333,11.0923106 L158.333333,10.5376951 L158.055556,10.5376951 L158.055556,9.98307953 L157.777778,9.98307953 L157.777778,9.428464 L157.5,9.428464 L157.5,8.87384847 L157.222222,8.87384847 L157.222222,8.31923294 L156.944444,8.31923294 L156.944444,7.76461741 L156.666667,7.76461741 L156.666667,7.21000188 L156.388889,7.21000188 L156.388889,6.65538635 L156.111111,6.65538635 L156.111111,6.10077082 L155.833333,6.10077082 L155.833333,5.54615529 L155.555556,5.54615529 L155.555556,4.99153976 L155.277778,4.99153976 L155.277778,4.43692423 L155,4.43692423 L155,3.8823087 L154.722222,3.8823087 L154.722222,3.32769318 L154.444444,3.32769318 L154.444444,2.77307765 L154.166667,2.77307765 L154.166667,1.94115435 L153.888889,1.94115435 L153.888889,1.38653882 L153.611111,1.38653882 L153.611111,0.831923294 L153.333333,0.831923294 L153.333333,0.277307765 L153.055556,0.277307765 L153.055556,0 L152.5,0 L152.5,0.277307765 L151.944444,0.277307765 L151.944444,0.554615529 L151.388889,0.554615529 L151.388889,0.831923294 L150.833333,0.831923294 L150.833333,1.10923106 L150.277778,1.10923106 L150.277778,1.38653882 L149.722222,1.38653882 L149.722222,1.66384659 L149.166667,1.66384659 L149.166667,1.94115435 L148.611111,1.94115435 L148.611111,2.21846212 L148.055556,2.21846212 L148.055556,2.49576988 L147.5,2.49576988 L147.5,2.77307765 L146.666667,2.77307765 L146.666667,3.05038541 L146.111111,3.05038541 L146.111111,3.32769318 L145.555556,3.32769318 L145.555556,3.60500094 L145,3.60500094 L145,3.8823087 L144.444444,3.8823087 L144.444444,4.15961647 L143.888889,4.15961647 L143.888889,4.43692423 L143.333333,4.43692423 L143.333333,4.714232 L142.777778,4.714232 L142.777778,4.99153976 L142.222222,4.99153976 L142.222222,5.26884753 L141.666667,5.26884753 L141.666667,5.54615529 L141.111111,5.54615529 L141.111111,5.82346306 L140.555556,5.82346306 L140.555556,6.10077082 L140,6.10077082 L140,6.37807859 L139.444444,6.37807859 L139.444444,6.65538635 L138.888889,6.65538635 L138.888889,6.93269412 L138.333333,6.93269412 L138.333333,7.21000188 L137.777778,7.21000188 L137.777778,7.48730964 L137.222222,7.48730964 L137.222222,7.76461741 L136.666667,7.76461741 L136.666667,8.04192517 L136.111111,8.04192517 L136.111111,8.31923294 L135.277778,8.31923294 L135.277778,8.5965407 L134.722222,8.5965407 L134.722222,8.87384847 L134.166667,8.87384847 L134.166667,9.15115623 L133.611111,9.15115623 L133.611111,9.428464 L133.055556,9.428464 L133.055556,9.70577176 L132.5,9.70577176 L132.5,9.98307953 L131.944444,9.98307953 L131.944444,10.2603873 L131.388889,10.2603873 L131.388889,10.5376951 L130.833333,10.5376951 L130.833333,10.8150028 L130.277778,10.8150028 L130.277778,11.0923106 L129.722222,11.0923106 L129.722222,11.3696183 L129.166667,11.3696183 L129.166667,11.6469261 L128.611111,11.6469261 L128.611111,11.9242339 L128.055556,11.9242339 L128.055556,12.2015416 L127.5,12.2015416 L127.5,12.4788494 L126.944444,12.4788494 L126.944444,12.7561572 L126.388889,12.7561572 L126.388889,13.0334649 L125.833333,13.0334649 L125.833333,13.3107727 L125.277778,13.3107727 L125.277778,13.5880805 L124.722222,13.5880805 L124.722222,13.8653882 L123.888889,13.8653882 L123.888889,14.142696 L123.333333,14.142696 L123.333333,14.4200038 L122.777778,14.4200038 L122.777778,14.6973115 L122.222222,14.6973115 L122.222222,14.9746193 L121.666667,14.9746193 L121.666667,15.2519271 L121.111111,15.2519271 L121.111111,15.5292348 L120.555556,15.5292348 L120.555556,15.8065426 L120,15.8065426 L120,16.0838503 L119.444444,16.0838503 L119.444444,16.3611581 L118.888889,16.3611581 L118.888889,16.6384659 L118.333333,16.6384659 L118.333333,16.9157736 L117.777778,16.9157736 L117.777778,17.1930814 L117.222222,17.1930814 L117.222222,17.4703892 L116.666667,17.4703892 L116.666667,17.7476969 L116.111111,17.7476969 L116.111111,18.0250047 L115.555556,18.0250047 L115.555556,18.3023125 L115,18.3023125 L115,18.5796202 L114.444444,18.5796202 L114.444444,18.856928 L113.888889,18.856928 L113.888889,19.1342358 L113.333333,19.1342358 L113.333333,19.4115435 L112.5,19.4115435 L112.5,19.6888513 L111.944444,19.6888513 L111.944444,19.9661591 L111.388889,19.9661591 L111.388889,20.2434668 L110.833333,20.2434668 L110.833333,20.5207746 L110.277778,20.5207746 L110.277778,20.7980823 L109.722222,20.7980823 L109.722222,21.0753901 L109.166667,21.0753901 L109.166667,21.3526979 L108.611111,21.3526979 L108.611111,21.6300056 L108.055556,21.6300056 L108.055556,21.9073134 L107.5,21.9073134 L107.5,22.1846212 L106.944444,22.1846212 L106.944444,22.4619289 L106.388889,22.4619289 L106.388889,22.7392367 L105.833333,22.7392367 L105.833333,23.0165445 L105.277778,23.0165445 L105.277778,23.2938522 L104.722222,23.2938522 L104.722222,23.57116 L104.166667,23.57116 L104.166667,23.8484678 L103.611111,23.8484678 L103.611111,24.1257755 L103.055556,24.1257755 L103.055556,24.4030833 L102.5,24.4030833 L102.5,24.6803911 L101.944444,24.6803911 L101.944444,24.9576988 L101.111111,24.9576988 L101.111111,25.2350066 L100.555556,25.2350066 L100.555556,25.5123143 L100,25.5123143 L100,25.7896221 L99.4444444,25.7896221 L99.4444444,26.0669299 L98.8888889,26.0669299 L98.8888889,26.3442376 L98.3333333,26.3442376 L98.3333333,26.6215454 L97.7777778,26.6215454 L97.7777778,26.8988532 L121.666667,26.8988532 L121.666667,26.6215454 L122.222222,26.6215454 L122.222222,26.3442376 L122.777778,26.3442376 L122.777778,26.0669299 L123.333333,26.0669299 L123.333333,25.7896221 L123.888889,25.7896221 L123.888889,25.5123143 L124.444444,25.5123143 L124.444444,25.2350066 L125,25.2350066 L125,24.9576988 L125.555556,24.9576988 L125.555556,24.6803911 L126.111111,24.6803911 L126.111111,24.4030833 L126.666667,24.4030833 L126.666667,24.1257755 L127.222222,24.1257755 L127.222222,23.8484678 L127.777778,23.8484678 L127.777778,23.57116 L128.333333,23.57116 L128.333333,23.2938522 L128.888889,23.2938522 L128.888889,23.0165445 L129.444444,23.0165445 L129.444444,22.7392367 L130.277778,22.7392367 L130.277778,22.4619289 L130.833333,22.4619289 L130.833333,22.1846212 L131.388889,22.1846212 L131.388889,21.9073134 L131.944444,21.9073134 L131.944444,21.6300056 L132.5,21.6300056 L132.5,21.3526979 L133.055556,21.3526979 L133.055556,21.0753901 L133.611111,21.0753901 L133.611111,20.7980823 L134.166667,20.7980823 L134.166667,20.5207746 L134.722222,20.5207746 L134.722222,20.2434668 L135.277778,20.2434668 L135.277778,19.9661591 L135.833333,19.9661591 L135.833333,19.6888513 L136.388889,19.6888513 L136.388889,19.4115435 L136.944444,19.4115435 L136.944444,19.1342358 L137.5,19.1342358 L137.5,18.856928 L138.055556,18.856928 L138.055556,18.5796202 L138.611111,18.5796202 L138.611111,18.3023125 L139.166667,18.3023125 L139.166667,18.0250047 L139.722222,18.0250047 L139.722222,17.7476969 L140.277778,17.7476969 L140.277778,17.4703892 L140.833333,17.4703892 L140.833333,17.1930814 L141.388889,17.1930814 L141.388889,16.9157736 L142.222222,16.9157736 L142.222222,16.6384659 L142.777778,16.6384659 L142.777778,16.3611581 L143.333333,16.3611581 L143.333333,16.0838503 L143.888889,16.0838503 L143.888889,15.8065426 L144.444444,15.8065426 L144.444444,15.5292348 L145,15.5292348 L145,15.2519271 L145.555556,15.2519271 L145.555556,14.9746193 L146.111111,14.9746193 L146.111111,14.6973115 L146.666667,14.6973115 L146.666667,14.4200038 L147.222222,14.4200038 L147.222222,14.142696 L147.777778,14.142696 L147.777778,13.8653882 L148.333333,13.8653882 L148.333333,14.6973115 L148.611111,14.6973115 L148.611111,15.2519271 L148.888889,15.2519271 L148.888889,15.8065426 L149.166667,15.8065426 L149.166667,16.3611581 L149.444444,16.3611581 L149.444444,16.9157736 L149.722222,16.9157736 L149.722222,17.4703892 L150,17.4703892 L150,18.0250047 L150.277778,18.0250047 L150.277778,18.5796202 L150.555556,18.5796202 L150.555556,19.1342358 L150.833333,19.1342358 L150.833333,19.6888513 L151.111111,19.6888513 L151.111111,20.2434668 L151.388889,20.2434668 L151.388889,20.7980823 L151.666667,20.7980823 L151.666667,21.3526979 L151.944444,21.3526979 L151.944444,21.9073134 L152.222222,21.9073134 L152.222222,22.4619289 L152.5,22.4619289 L152.5,23.0165445 L152.777778,23.0165445 L152.777778,23.57116 L153.055556,23.57116 L153.055556,24.1257755 L153.333333,24.1257755 L153.333333,24.6803911 L153.611111,24.6803911 L153.611111,25.2350066 L153.888889,25.2350066 L153.888889,25.7896221 L154.166667,25.7896221 L154.166667,26.3442376 L154.444444,26.3442376 L154.444444,26.8988532 L154.722222,26.8988532 L154.722222,27.4534687 L155,27.4534687 L155,28.0080842 L155.277778,28.0080842 L155.277778,28.8400075 L155.555556,28.8400075 L155.555556,29.394623 L155.833333,29.394623 L155.833333,29.9492386 L156.111111,29.9492386 L156.111111,30.5038541 L156.388889,30.5038541 L156.388889,31.0584696 L156.666667,31.0584696 L156.666667,31.6130852 L156.944444,31.6130852 L156.944444,32.1677007 L157.222222,32.1677007 L157.222222,32.7223162 L157.5,32.7223162 L157.5,33.2769318 L157.777778,33.2769318 L157.777778,33.8315473 L158.055556,33.8315473 L158.055556,34.3861628 L158.333333,34.3861628 L158.333333,34.9407783 L158.611111,34.9407783 L158.611111,35.4953939 L158.888889,35.4953939 L158.888889,36.0500094 L159.166667,36.0500094 L159.166667,36.6046249 L159.444444,36.6046249 L159.444444,37.1592405 L159.722222,37.1592405 L159.722222,37.713856 L160,37.713856 L160,38.2684715 L160.277778,38.2684715 L160.277778,38.823087 L160.555556,38.823087 L160.555556,39.3777026 L160.833333,39.3777026 L160.833333,39.9323181 L161.111111,39.9323181 L161.111111,40.4869336 L161.388889,40.4869336 L161.388889,41.0415492 L161.666667,41.0415492 L161.666667,41.5961647 L161.944444,41.5961647 L161.944444,42.1507802 L162.222222,42.1507802 L162.222222,42.7053958 L162.5,42.7053958 L162.5,43.537319 L162.777778,43.537319 L162.777778,44.0919346 L163.055556,44.0919346 L163.055556,44.6465501 L163.333333,44.6465501 L163.333333,45.2011656 L163.611111,45.2011656 L163.611111,45.7557812 L163.888889,45.7557812 L163.888889,46.3103967 L164.166667,46.3103967 L164.166667,46.8650122 L164.444444,46.8650122 L164.444444,47.4196277 L164.722222,47.4196277 L164.722222,47.9742433 L165,47.9742433 L165,48.5288588 L165.277778,48.5288588 L165.277778,49.0834743 L165.555556,49.0834743 L165.555556,49.6380899 L165.833333,49.6380899 L165.833333,50.1927054 L166.111111,50.1927054 L166.111111,50.7473209 L166.388889,50.7473209 L166.388889,51.3019365 L166.666667,51.3019365 L166.666667,51.856552 L166.944444,51.856552 L166.944444,52.4111675 L167.222222,52.4111675 L167.222222,52.965783 L167.5,52.965783 L167.5,53.5203986 L167.777778,53.5203986 L167.777778,54.0750141 L168.055556,54.0750141 L168.055556,54.6296296 L168.333333,54.6296296 L168.333333,55.1842452 L168.611111,55.1842452 L168.611111,55.7388607 L168.888889,55.7388607 L168.888889,56.2934762 L169.166667,56.2934762 L169.166667,56.8480917 L169.444444,56.8480917 L169.444444,57.680015 L169.722222,57.680015 L169.722222,58.2346306 L170,58.2346306 L170,58.7892461 L170.277778,58.7892461 L170.277778,59.3438616 L170.555556,59.3438616 L170.555556,59.8984772 L170.833333,59.8984772 L170.833333,60.4530927 L171.111111,60.4530927 L171.111111,61.0077082 L171.388889,61.0077082 L171.388889,61.5623237 L171.666667,61.5623237 L171.666667,62.1169393 L171.944444,62.1169393 L171.944444,62.6715548 L172.222222,62.6715548 L172.222222,63.2261703 L172.5,63.2261703 L172.5,63.7807859 L172.777778,63.7807859 L172.777778,64.3354014 L173.055556,64.3354014 L173.055556,64.8900169 L173.333333,64.8900169 L173.333333,65.4446324 L173.611111,65.4446324 L173.611111,65.999248 L173.888889,65.999248 L173.888889,66.5538635 L174.166667,66.5538635 L174.166667,67.108479 L174.444444,67.108479 L174.444444,67.6630946 L174.722222,67.6630946 L174.722222,68.2177101 L175,68.2177101 L175,68.7723256 L175.277778,68.7723256 L175.277778,69.3269412 L175.555556,69.3269412 L175.555556,69.8815567 L175.833333,69.8815567 L175.833333,70.4361722 L176.111111,70.4361722 L176.111111,70.9907877 L176.388889,70.9907877 L176.388889,71.822711 L176.666667,71.822711 L176.666667,72.1000188 L176.111111,72.1000188 L176.111111,72.3773266 L175.555556,72.3773266 L175.555556,72.6546343 L174.722222,72.6546343 L174.722222,72.9319421 L174.166667,72.9319421 L174.166667,73.2092499 L173.611111,73.2092499 L173.611111,73.4865576 L173.055556,73.4865576 L173.055556,73.7638654 L172.5,73.7638654 L172.5,74.0411732 L171.944444,74.0411732 L171.944444,74.3184809 L171.388889,74.3184809 L171.388889,74.5957887 L170.833333,74.5957887 L170.833333,74.8730964 L170.277778,74.8730964 L170.277778,75.1504042 L169.722222,75.1504042 L169.722222,75.427712 L169.166667,75.427712 L169.166667,75.7050197 L168.611111,75.7050197 L168.611111,75.9823275 L168.055556,75.9823275 L168.055556,76.2596353 L167.5,76.2596353 L167.5,76.536943 L166.944444,76.536943 L166.944444,76.8142508 L166.388889,76.8142508 L166.388889,77.0915586 L165.833333,77.0915586 L165.833333,77.3688663 L165.277778,77.3688663 L165.277778,77.6461741 L164.722222,77.6461741 L164.722222,77.9234819 L164.166667,77.9234819 L164.166667,78.2007896 L163.611111,78.2007896 L163.611111,78.4780974 L163.055556,78.4780974 L163.055556,78.7554052 L162.222222,78.7554052 L162.222222,79.0327129 L161.666667,79.0327129 L161.666667,79.3100207 L161.111111,79.3100207 L161.111111,79.5873284 L160.555556,79.5873284 L160.555556,79.8646362 L160,79.8646362 L160,80.141944 L159.444444,80.141944 L159.444444,80.4192517 L158.888889,80.4192517 L158.888889,80.6965595 L158.333333,80.6965595 L158.333333,80.9738673 L157.777778,80.9738673 L157.777778,81.251175 L157.222222,81.251175 L157.222222,81.5284828 L156.666667,81.5284828 L156.666667,81.8057906 L156.111111,81.8057906 L156.111111,82.0830983 L155.555556,82.0830983 L155.555556,82.3604061 L155,82.3604061 L155,82.6377139 L154.444444,82.6377139 L154.444444,82.9150216 L153.888889,82.9150216 L153.888889,83.1923294 L153.333333,83.1923294 L153.333333,83.4696371 L152.777778,83.4696371 L152.777778,83.7469449 L152.222222,83.7469449 L152.222222,84.0242527 L151.666667,84.0242527 L151.666667,84.3015604 L151.111111,84.3015604 L151.111111,84.5788682 L150.555556,84.5788682 L150.555556,84.856176 L150,84.856176 L150,85.1334837 L149.166667,85.1334837 L149.166667,85.4107915 L148.611111,85.4107915 L148.611111,85.6880993 L148.055556,85.6880993 L148.055556,85.965407 L147.5,85.965407 L147.5,86.2427148 L146.944444,86.2427148 L146.944444,86.5200226 L146.388889,86.5200226 L146.388889,86.7973303 L145.833333,86.7973303 L145.833333,87.0746381 L145.277778,87.0746381 L145.277778,87.3519459 L144.722222,87.3519459 L144.722222,87.6292536 L144.166667,87.6292536 L144.166667,87.9065614 L143.611111,87.9065614 L143.611111,88.1838691 L143.055556,88.1838691 L143.055556,88.4611769 L142.5,88.4611769 L142.5,88.7384847 L141.944444,88.7384847 L141.944444,89.0157924 L141.388889,89.0157924 L141.388889,89.2931002 L140.833333,89.2931002 L140.833333,89.570408 L140.277778,89.570408 L140.277778,89.8477157 L139.722222,89.8477157 L139.722222,90.1250235 L139.166667,90.1250235 L139.166667,90.4023313 L138.611111,90.4023313 L138.611111,90.679639 L138.055556,90.679639 L138.055556,90.9569468 L137.5,90.9569468 L137.5,91.2342546 L136.666667,91.2342546 L136.666667,91.5115623 L136.111111,91.5115623 L136.111111,91.7888701 L135.555556,91.7888701 L135.555556,92.0661779 L135,92.0661779 L135,92.3434856 L134.444444,92.3434856 L134.444444,92.6207934 L133.888889,92.6207934 L133.888889,92.8981011 L133.333333,92.8981011 L133.333333,93.1754089 L132.777778,93.1754089 L132.777778,93.4527167 L132.222222,93.4527167 L132.222222,93.7300244 L131.666667,93.7300244 L131.666667,94.0073322 L131.111111,94.0073322 L131.111111,94.28464 L130.555556,94.28464 L130.555556,94.5619477 L130,94.5619477 L130,94.8392555 L129.444444,94.8392555 L129.444444,95.1165633 L128.888889,95.1165633 L128.888889,95.393871 L128.333333,95.393871 L128.333333,95.6711788 L127.777778,95.6711788 L127.777778,95.9484866 L127.222222,95.9484866 L127.222222,96.2257943 L126.666667,96.2257943 L126.666667,96.5031021 L126.111111,96.5031021 L126.111111,96.7804099 L125.555556,96.7804099 L125.555556,97.0577176 L125,97.0577176 L125,132.553111 L125.555556,132.553111 L125.555556,132.275804 L126.111111,132.275804 L126.111111,131.998496 L126.666667,131.998496 L126.666667,131.721188 L127.222222,131.721188 L127.222222,131.44388 L127.777778,131.44388 L127.777778,131.166573 L128.333333,131.166573 L128.333333,130.889265 L128.888889,130.889265 L128.888889,130.611957 L129.444444,130.611957 L129.444444,130.334649 L130,130.334649 L130,130.057342 L130.555556,130.057342 L130.555556,129.780034 L131.111111,129.780034 L131.111111,129.502726 L131.666667,129.502726 L131.666667,129.225418 L132.222222,129.225418 L132.222222,128.948111 L132.777778,128.948111 L132.777778,128.670803 L133.333333,128.670803 L133.333333,128.393495 L133.888889,128.393495 L133.888889,128.116187 L134.444444,128.116187 L134.444444,127.838879 L135,127.838879 L135,127.561572 L135.555556,127.561572 L135.555556,127.284264 L136.111111,127.284264 L136.111111,127.006956 L136.666667,127.006956 L136.666667,126.729648 L137.222222,126.729648 L137.222222,126.452341 L138.055556,126.452341 L138.055556,126.175033 L138.611111,126.175033 L138.611111,125.897725 L139.166667,125.897725 L139.166667,125.620417 L139.722222,125.620417 L139.722222,125.34311 L140.277778,125.34311 L140.277778,125.065802 L140.833333,125.065802 L140.833333,124.788494 L141.388889,124.788494 L141.388889,124.511186 L141.944444,124.511186 L141.944444,124.233879 L142.5,124.233879 L142.5,123.956571 L143.055556,123.956571 L143.055556,123.679263 L143.611111,123.679263 L143.611111,123.401955 L144.166667,123.401955 L144.166667,123.124647 L144.722222,123.124647 L144.722222,122.84734 L145.277778,122.84734 L145.277778,122.570032 L145.833333,122.570032 L145.833333,122.292724 L146.388889,122.292724 L146.388889,122.015416 L146.944444,122.015416 L146.944444,121.738109 L147.5,121.738109 L147.5,121.460801 L148.055556,121.460801 L148.055556,121.183493 L148.611111,121.183493 L148.611111,120.906185 L149.166667,120.906185 L149.166667,120.628878 L149.722222,120.628878 L149.722222,120.35157 L150.277778,120.35157 L150.277778,120.074262 L150.833333,120.074262 L150.833333,119.796954 L151.388889,119.796954 L151.388889,119.519647 L151.944444,119.519647 L151.944444,119.242339 L152.5,119.242339 L152.5,118.965031 L153.333333,118.965031 L153.333333,118.687723 L153.888889,118.687723 L153.888889,118.410415 L154.444444,118.410415 L154.444444,118.133108 L155,118.133108 L155,117.8558 L155.555556,117.8558 L155.555556,117.578492 L156.111111,117.578492 L156.111111,117.301184 L156.666667,117.301184 L156.666667,117.023877 L157.222222,117.023877 L157.222222,116.746569 L157.777778,116.746569 L157.777778,116.469261 L158.333333,116.469261 L158.333333,116.191953 L158.888889,116.191953 L158.888889,115.914646 L159.444444,115.914646 L159.444444,115.637338 L160,115.637338 L160,115.36003 L160.555556,115.36003 L160.555556,115.082722 L161.111111,115.082722 L161.111111,114.805415 L161.666667,114.805415 L161.666667,114.528107 L162.222222,114.528107 L162.222222,114.250799 L162.777778,114.250799 L162.777778,113.973491 L163.333333,113.973491 L163.333333,113.696183 L163.888889,113.696183 L163.888889,113.418876 L164.444444,113.418876 L164.444444,113.141568 L165,113.141568 L165,112.86426 L165.555556,112.86426 L165.555556,112.586952 L166.111111,112.586952 L166.111111,112.309645 L166.666667,112.309645 L166.666667,112.032337 L167.222222,112.032337 L167.222222,111.755029 L167.777778,111.755029 L167.777778,111.477721 L168.611111,111.477721 L168.611111,111.200414 L169.166667,111.200414 L169.166667,110.923106 L169.722222,110.923106 L169.722222,110.645798 L170.277778,110.645798 L170.277778,110.36849 L170.833333,110.36849 L170.833333,110.091183 L171.388889,110.091183 L171.388889,109.813875 L171.944444,109.813875 L171.944444,109.536567 L172.5,109.536567 L172.5,109.259259 L173.055556,109.259259 L173.055556,108.981951 L173.611111,108.981951 L173.611111,108.704644 L174.166667,108.704644 L174.166667,108.427336 L174.722222,108.427336 L174.722222,108.150028 L175.277778,108.150028 L175.277778,107.87272 L175.833333,107.87272 L175.833333,107.595413 L176.388889,107.595413 L176.388889,107.318105 L176.944444,107.318105 L176.944444,107.040797 L177.5,107.040797 L177.5,106.763489 L178.055556,106.763489 L178.055556,106.486182 L178.611111,106.486182 L178.611111,106.208874 L179.166667,106.208874 L179.166667,105.931566 L179.722222,105.931566 L179.722222,105.654258 L180.277778,105.654258 L180.277778,105.376951 L180.833333,105.376951 L180.833333,105.099643 L181.388889,105.099643 L181.388889,104.822335 L181.944444,104.822335 L181.944444,104.545027 L182.5,104.545027 L182.5,104.267719 L183.055556,104.267719 L183.055556,103.990412 L183.888889,103.990412 L183.888889,103.713104 L184.444444,103.713104 L184.444444,103.435796 L185,103.435796 L185,103.158488 L185.555556,103.158488 L185.555556,102.881181 L186.111111,102.881181 L186.111111,102.603873 L186.666667,102.603873 L186.666667,102.326565 L187.222222,102.326565 L187.222222,102.049257 L187.777778,102.049257 L187.777778,101.77195 L188.333333,101.77195 L188.333333,101.494642 L188.888889,101.494642 L188.888889,101.217334 L189.444444,101.217334 L189.444444,100.940026 L190,100.940026 L190,100.662719 L190.555556,100.662719 L190.555556,100.385411 L191.111111,100.385411 L191.111111,100.108103 L191.666667,100.108103 L191.666667,99.8307953 L192.222222,99.8307953 L192.222222,99.5534875 L192.777778,99.5534875 L192.777778,99.2761797 L193.333333,99.2761797 L193.333333,98.998872 L193.888889,98.998872 L193.888889,98.7215642 L194.444444,98.7215642 L194.444444,98.4442564 L195,98.4442564 L195,98.1669487 L195.555556,98.1669487 L195.555556,97.8896409 L196.111111,97.8896409 L196.111111,97.6123331 L196.666667,97.6123331 L196.666667,97.3350254 L197.222222,97.3350254 L197.222222,97.0577176 L197.777778,97.0577176 L197.777778,96.7804099 L198.333333,96.7804099 L198.333333,96.5031021 L199.166667,96.5031021 L199.166667,96.2257943 L199.722222,96.2257943 L199.722222,95.9484866 L200,95.9484866 L200,95.6711788 L199.722222,95.6711788 L199.722222,95.1165633 L199.444444,95.1165633 L199.444444,94.5619477 L199.166667,94.5619477 L199.166667,94.0073322 L198.888889,94.0073322 L198.888889,93.4527167 L198.611111,93.4527167 L198.611111,92.8981011 L198.333333,92.8981011 L198.333333,92.3434856 L198.055556,92.3434856 L198.055556,91.7888701 L197.777778,91.7888701 L197.777778,91.2342546 L197.5,91.2342546 L197.5,90.679639 L197.222222,90.679639 L197.222222,90.1250235 L196.944444,90.1250235 L196.944444,89.570408 L196.666667,89.570408 L196.666667,89.0157924 L196.388889,89.0157924 L196.388889,88.4611769 L196.111111,88.4611769 L196.111111,87.9065614 L195.833333,87.9065614 L195.833333,87.3519459 L195.555556,87.3519459 L195.555556,86.7973303 L195.277778,86.7973303 L195.277778,86.2427148 L195,86.2427148 L195,85.4107915 L194.722222,85.4107915 L194.722222,84.856176 L194.444444,84.856176 L194.444444,84.3015604 L194.166667,84.3015604 L194.166667,83.7469449 L193.888889,83.7469449 L193.888889,83.1923294 L193.611111,83.1923294 L193.611111,82.6377139 L193.333333,82.6377139 L193.333333,82.0830983 L193.055556,82.0830983 L193.055556,81.5284828 L192.777778,81.5284828 L192.777778,80.9738673 L192.5,80.9738673 L192.5,80.4192517 L192.222222,80.4192517 L192.222222,79.8646362 L191.944444,79.8646362 L191.944444,79.3100207 L191.666667,79.3100207 L191.666667,78.7554052 L191.388889,78.7554052 L191.388889,78.2007896 L191.111111,78.2007896 L191.111111,77.6461741 L190.833333,77.6461741 L190.833333,77.0915586 L190.555556,77.0915586 L190.555556,76.536943 L190.277778,76.536943 L190.277778,75.9823275 L190,75.9823275 L190,75.427712 L189.722222,75.427712 L189.722222,74.8730964 L189.444444,74.8730964 L189.444444,74.3184809 L189.166667,74.3184809 L189.166667,73.4865576 L188.888889,73.4865576 L188.888889,72.9319421 L188.611111,72.9319421 L188.611111,72.3773266 L188.333333,72.3773266 L188.333333,71.822711 L188.055556,71.822711 L188.055556,71.2680955 L187.777778,71.2680955 L187.777778,70.71348 L187.5,70.71348 L187.5,70.1588644 L187.222222,70.1588644 L187.222222,69.6042489 L186.944444,69.6042489 L186.944444,69.0496334 L186.666667,69.0496334 L186.666667,68.4950179 L186.388889,68.4950179 L186.388889,67.9404023 L186.111111,67.9404023 L186.111111,67.3857868 L185.833333,67.3857868 L185.833333,66.8311713 L185.555556,66.8311713 L185.555556,66.2765557 L185.277778,66.2765557 L185.277778,65.7219402 L185,65.7219402 L185,65.1673247 L184.722222,65.1673247 L184.722222,64.6127092 L184.444444,64.6127092 L184.444444,64.0580936 L184.166667,64.0580936 L184.166667,63.5034781 L183.888889,63.5034781 L183.888889,62.9488626 L183.611111,62.9488626 L183.611111,62.1169393 L183.333333,62.1169393 L183.333333,61.5623237 L183.055556,61.5623237 L183.055556,61.0077082 L182.777778,61.0077082 L182.777778,60.4530927 L182.5,60.4530927 L182.5,59.8984772 L182.222222,59.8984772 L182.222222,59.3438616 L181.944444,59.3438616 L181.944444,58.7892461 L181.666667,58.7892461 L181.666667,58.2346306 L181.388889,58.2346306 L181.388889,57.680015 L181.111111,57.680015 L181.111111,57.1253995 L180.833333,57.1253995 L180.833333,56.570784 L180.555556,56.570784 L180.555556,56.0161685 L180.277778,56.0161685 L180.277778,55.4615529 L180,55.4615529 L180,54.9069374 L179.722222,54.9069374 L179.722222,54.3523219 L179.444444,54.3523219 L179.444444,53.7977063 L179.166667,53.7977063 L179.166667,53.2430908 L178.888889,53.2430908 L178.888889,52.6884753 L178.611111,52.6884753 L178.611111,52.1338597 L178.333333,52.1338597 L178.333333,51.5792442 L178.055556,51.5792442 L178.055556,51.0246287 L177.777778,51.0246287 L177.777778,50.4700132 L177.5,50.4700132 L177.5,49.6380899 L177.222222,49.6380899 L177.222222,49.0834743 L176.944444,49.0834743 L176.944444,48.5288588 L176.666667,48.5288588 L176.666667,47.9742433 L176.388889,47.9742433 L176.388889,47.4196277 L176.111111,47.4196277 L176.111111,46.8650122 L175.833333,46.8650122 L175.833333,46.3103967 L175.555556,46.3103967 L175.555556,45.7557812 L175.277778,45.7557812 L175.277778,45.2011656 L175,45.2011656 L175,44.6465501 L174.722222,44.6465501 L174.722222,44.0919346 L174.444444,44.0919346 L174.444444,43.537319 L174.166667,43.537319 L174.166667,42.9827035 L173.888889,42.9827035 L173.888889,42.428088 L173.611111,42.428088 L173.611111,41.8734725 L173.333333,41.8734725 L173.333333,41.3188569 L173.055556,41.3188569 L173.055556,40.7642414 L172.777778,40.7642414 L172.777778,40.2096259 L172.5,40.2096259 Z M0,39.3777026 L112.5,39.3777026 L112.5,163.888889 L0,163.888889 L0,39.3777026 Z M12.7777778,51.856552 L100.555556,51.856552 L100.555556,127.006956 L12.7777778,127.006956 L12.7777778,51.856552 Z M64.7222222,81.251175 L64.7222222,80.6965595 L65,80.6965595 L65,80.141944 L65.2777778,80.141944 L65.2777778,79.5873284 L65.5555556,79.5873284 L65.5555556,79.0327129 L65.8333333,79.0327129 L65.8333333,78.7554052 L66.1111111,78.7554052 L66.1111111,78.2007896 L66.3888889,78.2007896 L66.3888889,77.6461741 L66.6666667,77.6461741 L66.6666667,77.0915586 L66.9444444,77.0915586 L66.9444444,77.6461741 L67.2222222,77.6461741 L67.2222222,78.2007896 L67.5,78.2007896 L67.5,78.4780974 L67.7777778,78.4780974 L67.7777778,79.0327129 L68.0555556,79.0327129 L68.0555556,79.5873284 L68.3333333,79.5873284 L68.3333333,80.141944 L68.6111111,80.141944 L68.6111111,80.6965595 L68.8888889,80.6965595 L68.8888889,80.9738673 L69.1666667,80.9738673 L69.1666667,81.5284828 L69.4444444,81.5284828 L69.4444444,82.0830983 L69.7222222,82.0830983 L69.7222222,82.6377139 L70,82.6377139 L70,83.1923294 L70.2777778,83.1923294 L70.2777778,83.4696371 L70.5555556,83.4696371 L70.5555556,84.0242527 L70.8333333,84.0242527 L70.8333333,84.5788682 L71.1111111,84.5788682 L71.1111111,85.1334837 L71.3888889,85.1334837 L71.3888889,85.6880993 L71.6666667,85.6880993 L71.6666667,85.965407 L71.9444444,85.965407 L71.9444444,86.5200226 L72.2222222,86.5200226 L72.2222222,87.0746381 L72.5,87.0746381 L72.5,87.6292536 L72.7777778,87.6292536 L72.7777778,87.9065614 L73.0555556,87.9065614 L73.0555556,88.4611769 L73.3333333,88.4611769 L73.3333333,89.0157924 L73.6111111,89.0157924 L73.6111111,89.570408 L73.8888889,89.570408 L73.8888889,90.1250235 L74.1666667,90.1250235 L74.1666667,90.4023313 L74.4444444,90.4023313 L74.4444444,90.9569468 L74.7222222,90.9569468 L74.7222222,91.5115623 L75,91.5115623 L75,92.0661779 L75.2777778,92.0661779 L75.2777778,92.6207934 L75.5555556,92.6207934 L75.5555556,92.8981011 L75.8333333,92.8981011 L75.8333333,93.4527167 L76.1111111,93.4527167 L76.1111111,94.0073322 L76.3888889,94.0073322 L76.3888889,94.5619477 L76.6666667,94.5619477 L76.6666667,95.1165633 L76.9444444,95.1165633 L76.9444444,95.393871 L77.2222222,95.393871 L77.2222222,95.9484866 L77.5,95.9484866 L77.5,96.5031021 L77.7777778,96.5031021 L77.7777778,97.0577176 L78.0555556,97.0577176 L78.0555556,97.6123331 L78.3333333,97.6123331 L78.3333333,97.8896409 L78.6111111,97.8896409 L78.6111111,98.4442564 L78.8888889,98.4442564 L78.8888889,98.998872 L79.1666667,98.998872 L79.1666667,99.5534875 L79.4444444,99.5534875 L79.4444444,100.108103 L79.7222222,100.108103 L79.7222222,100.385411 L80,100.385411 L80,100.940026 L80.2777778,100.940026 L80.2777778,101.494642 L80.5555556,101.494642 L80.5555556,102.049257 L80.8333333,102.049257 L80.8333333,102.603873 L81.1111111,102.603873 L81.1111111,102.881181 L81.3888889,102.881181 L81.3888889,103.435796 L81.6666667,103.435796 L81.6666667,103.990412 L81.9444444,103.990412 L81.9444444,104.545027 L82.2222222,104.545027 L82.2222222,105.099643 L82.5,105.099643 L82.5,105.376951 L82.7777778,105.376951 L82.7777778,105.931566 L83.0555556,105.931566 L83.0555556,106.486182 L83.3333333,106.486182 L83.3333333,107.040797 L83.6111111,107.040797 L83.6111111,107.595413 L83.8888889,107.595413 L83.8888889,107.87272 L84.1666667,107.87272 L84.1666667,108.427336 L84.4444444,108.427336 L84.4444444,108.981951 L84.7222222,108.981951 L84.7222222,109.536567 L85,109.536567 L85,110.091183 L85.2777778,110.091183 L85.2777778,110.36849 L85.5555556,110.36849 L85.5555556,110.923106 L85.8333333,110.923106 L85.8333333,111.477721 L86.1111111,111.477721 L86.1111111,112.032337 L86.3888889,112.032337 L86.3888889,112.586952 L86.6666667,112.586952 L86.6666667,112.86426 L86.9444444,112.86426 L86.9444444,113.418876 L87.2222222,113.418876 L87.2222222,113.973491 L46.3888889,113.973491 L46.3888889,113.696183 L46.6666667,113.696183 L46.6666667,113.141568 L46.9444444,113.141568 L46.9444444,112.86426 L47.2222222,112.86426 L47.2222222,112.309645 L47.5,112.309645 L47.5,111.755029 L47.7777778,111.755029 L47.7777778,111.200414 L48.0555556,111.200414 L48.0555556,110.645798 L48.3333333,110.645798 L48.3333333,110.36849 L48.6111111,110.36849 L48.6111111,109.813875 L48.8888889,109.813875 L48.8888889,109.259259 L49.1666667,109.259259 L49.1666667,108.704644 L49.4444444,108.704644 L49.4444444,108.150028 L49.7222222,108.150028 L49.7222222,107.595413 L50,107.595413 L50,107.318105 L50.2777778,107.318105 L50.2777778,106.763489 L50.5555556,106.763489 L50.5555556,106.208874 L50.8333333,106.208874 L50.8333333,105.654258 L51.1111111,105.654258 L51.1111111,105.099643 L51.3888889,105.099643 L51.3888889,104.822335 L51.6666667,104.822335 L51.6666667,104.267719 L51.9444444,104.267719 L51.9444444,103.713104 L52.2222222,103.713104 L52.2222222,103.158488 L52.5,103.158488 L52.5,102.603873 L52.7777778,102.603873 L52.7777778,102.326565 L53.0555556,102.326565 L53.0555556,101.77195 L53.3333333,101.77195 L53.3333333,101.217334 L53.6111111,101.217334 L53.6111111,100.662719 L53.8888889,100.662719 L53.8888889,100.108103 L54.1666667,100.108103 L54.1666667,99.8307953 L54.4444444,99.8307953 L54.4444444,99.2761797 L54.7222222,99.2761797 L54.7222222,98.7215642 L55,98.7215642 L55,98.1669487 L55.2777778,98.1669487 L55.2777778,97.6123331 L55.5555556,97.6123331 L55.5555556,97.3350254 L55.8333333,97.3350254 L55.8333333,96.7804099 L56.1111111,96.7804099 L56.1111111,96.2257943 L56.3888889,96.2257943 L56.3888889,95.6711788 L56.6666667,95.6711788 L56.6666667,95.1165633 L56.9444444,95.1165633 L56.9444444,94.8392555 L57.2222222,94.8392555 L57.2222222,94.28464 L57.5,94.28464 L57.5,93.7300244 L57.7777778,93.7300244 L57.7777778,93.1754089 L58.0555556,93.1754089 L58.0555556,92.6207934 L58.3333333,92.6207934 L58.3333333,92.0661779 L58.6111111,92.0661779 L58.6111111,91.7888701 L58.8888889,91.7888701 L58.8888889,91.2342546 L59.1666667,91.2342546 L59.1666667,90.679639 L59.4444444,90.679639 L59.4444444,90.1250235 L59.7222222,90.1250235 L59.7222222,89.570408 L60,89.570408 L60,89.2931002 L60.2777778,89.2931002 L60.2777778,88.7384847 L60.5555556,88.7384847 L60.5555556,88.1838691 L60.8333333,88.1838691 L60.8333333,87.6292536 L61.1111111,87.6292536 L61.1111111,87.0746381 L61.3888889,87.0746381 L61.3888889,86.7973303 L61.6666667,86.7973303 L61.6666667,86.2427148 L61.9444444,86.2427148 L61.9444444,85.6880993 L62.2222222,85.6880993 L62.2222222,85.1334837 L62.5,85.1334837 L62.5,84.5788682 L62.7777778,84.5788682 L62.7777778,84.3015604 L63.0555556,84.3015604 L63.0555556,83.7469449 L63.3333333,83.7469449 L63.3333333,83.1923294 L63.6111111,83.1923294 L63.6111111,82.6377139 L63.8888889,82.6377139 L63.8888889,82.0830983 L64.1666667,82.0830983 L64.1666667,81.8057906 L64.4444444,81.8057906 L64.4444444,81.251175 L64.7222222,81.251175 Z M41.9444444,106.763489 L41.9444444,107.318105 L42.2222222,107.318105 L42.2222222,107.595413 L42.5,107.595413 L42.5,108.150028 L42.7777778,108.150028 L42.7777778,108.704644 L43.0555556,108.704644 L43.0555556,109.259259 L43.3333333,109.259259 L43.3333333,109.536567 L43.6111111,109.536567 L43.6111111,110.091183 L43.8888889,110.091183 L43.8888889,110.645798 L44.1666667,110.645798 L44.1666667,111.200414 L44.4444444,111.200414 L44.4444444,111.755029 L44.7222222,111.755029 L44.7222222,112.032337 L45,112.032337 L45,112.586952 L45.2777778,112.586952 L45.2777778,113.141568 L45.5555556,113.141568 L45.5555556,113.696183 L45.8333333,113.696183 L45.8333333,113.973491 L25.5555556,113.973491 L25.5555556,113.696183 L25.8333333,113.696183 L25.8333333,113.418876 L26.1111111,113.418876 L26.1111111,112.86426 L26.3888889,112.86426 L26.3888889,112.309645 L26.6666667,112.309645 L26.6666667,111.755029 L26.9444444,111.755029 L26.9444444,111.200414 L27.2222222,111.200414 L27.2222222,110.923106 L27.5,110.923106 L27.5,110.36849 L27.7777778,110.36849 L27.7777778,109.813875 L28.0555556,109.813875 L28.0555556,109.259259 L28.3333333,109.259259 L28.3333333,108.704644 L28.6111111,108.704644 L28.6111111,108.150028 L28.8888889,108.150028 L28.8888889,107.87272 L29.1666667,107.87272 L29.1666667,107.318105 L29.4444444,107.318105 L29.4444444,106.763489 L29.7222222,106.763489 L29.7222222,106.208874 L30,106.208874 L30,105.654258 L30.2777778,105.654258 L30.2777778,105.376951 L30.5555556,105.376951 L30.5555556,104.822335 L30.8333333,104.822335 L30.8333333,104.267719 L31.1111111,104.267719 L31.1111111,103.713104 L31.3888889,103.713104 L31.3888889,103.158488 L31.6666667,103.158488 L31.6666667,102.881181 L31.9444444,102.881181 L31.9444444,102.326565 L32.2222222,102.326565 L32.2222222,101.77195 L32.5,101.77195 L32.5,101.217334 L32.7777778,101.217334 L32.7777778,100.662719 L33.0555556,100.662719 L33.0555556,100.385411 L33.3333333,100.385411 L33.3333333,99.8307953 L33.6111111,99.8307953 L33.6111111,99.2761797 L33.8888889,99.2761797 L33.8888889,98.7215642 L34.1666667,98.7215642 L34.1666667,98.1669487 L34.4444444,98.1669487 L34.4444444,97.8896409 L34.7222222,97.8896409 L34.7222222,97.3350254 L35,97.3350254 L35,96.7804099 L35.2777778,96.7804099 L35.2777778,96.2257943 L35.5555556,96.2257943 L35.5555556,95.6711788 L35.8333333,95.6711788 L35.8333333,96.2257943 L36.1111111,96.2257943 L36.1111111,96.7804099 L36.3888889,96.7804099 L36.3888889,97.3350254 L36.6666667,97.3350254 L36.6666667,97.8896409 L36.9444444,97.8896409 L36.9444444,98.1669487 L37.2222222,98.1669487 L37.2222222,98.7215642 L37.5,98.7215642 L37.5,99.2761797 L37.7777778,99.2761797 L37.7777778,99.8307953 L38.0555556,99.8307953 L38.0555556,100.385411 L38.3333333,100.385411 L38.3333333,100.662719 L38.6111111,100.662719 L38.6111111,101.217334 L38.8888889,101.217334 L38.8888889,101.77195 L39.1666667,101.77195 L39.1666667,102.326565 L39.4444444,102.326565 L39.4444444,102.603873 L39.7222222,102.603873 L39.7222222,103.158488 L40,103.158488 L40,103.713104 L40.2777778,103.713104 L40.2777778,104.267719 L40.5555556,104.267719 L40.5555556,104.822335 L40.8333333,104.822335 L40.8333333,105.099643 L41.1111111,105.099643 L41.1111111,105.654258 L41.3888889,105.654258 L41.3888889,106.208874 L41.6666667,106.208874 L41.6666667,106.763489 L41.9444444,106.763489 Z" id="Combined-Shape"></path>
    </g>
</svg>
