<?xml version="1.0" encoding="UTF-8" standalone="no"?>
<svg width="27px" height="34px" viewBox="0 0 27 34" version="1.1" xmlns="http://www.w3.org/2000/svg" xmlns:xlink="http://www.w3.org/1999/xlink">
    <!-- Generator: Sketch 3.7 (28169) - http://www.bohemiancoding.com/sketch -->
    <title>1463378103_location</title>
    <desc>Created with Sketch.</desc>
    <defs></defs>
    <g id="Page-1">
        <g id="1463378103_location" transform="translate(1.000000, 1.000000)" stroke="#FFFFFF">
            <g id="location">
                <path d="M12.6875,20.0585 C17.2718437,20.0585 21,16.3289583 21,11.746 C21,7.16304167 17.2718437,3.4335 12.6875,3.4335 C8.10315625,3.4335 4.375,7.16165625 4.375,11.746 C4.375,16.3303437 8.10315625,20.0585 12.6875,20.0585 L12.6875,20.0585 Z M12.4989584,0 C5.60578285,0 0,5.316 0,12.001 C0,19.001 6.25052079,26.162 10.8074327,31.195 C10.824098,31.215 11.5552871,32 12.4593784,32 L12.53958,32 C13.4426298,32 14.1748604,31.215 14.1915257,31.195 C18.7505208,26.162 25,19.002 25,12.001 C25,5.316 19.3931756,0 12.4989584,0 Z" id="Combined-Shape" fill="#FFFFFF"></path>
                <g id="Group" transform="translate(11.000000, 6.000000)" stroke-linecap="square">
                    <path d="M1.5,0 L1.5,6" id="Line"></path>
                    <path d="M1.5,6.5 L6.5,6.5" id="Line"></path>
                </g>
            </g>
        </g>
    </g>
</svg>
