<?xml version="1.0" encoding="UTF-8" standalone="no"?>
<svg width="199px" height="180px" viewBox="0 0 199 180" version="1.1" xmlns="http://www.w3.org/2000/svg" xmlns:xlink="http://www.w3.org/1999/xlink">
    <!-- Generator: Sketch 3.7 (28169) - http://www.bohemiancoding.com/sketch -->
    <title>paper_plane</title>
    <desc>Created with Sketch.</desc>
    <defs></defs>
    <g id="Page-1" stroke="none" stroke-width="1" fill="none" fill-rule="evenodd">
        <g id="paper_plane" fill="#FFFFFF">
            <polygon id="Shape" points="6.59337349 3 6.59337349 3.3 7.19277108 3.3 7.19277108 3.6 7.79216867 3.6 7.79216867 3.9 8.39156627 3.9 8.39156627 4.2 8.99096386 4.2 8.99096386 4.5 9.59036145 4.5 9.59036145 4.8 10.189759 4.8 10.189759 5.1 10.7891566 5.1 10.7891566 5.4 11.3885542 5.4 11.3885542 5.7 11.9879518 5.7 11.9879518 6 12.5873494 6 12.5873494 6.3 13.186747 6.3 13.186747 6.6 13.7861446 6.6 13.7861446 6.9 14.3855422 6.9 14.3855422 7.2 14.9849398 7.2 14.9849398 7.5 15.5843373 7.5 15.5843373 7.8 16.1837349 7.8 16.1837349 8.1 16.7831325 8.1 16.7831325 8.4 17.3825301 8.4 17.3825301 8.7 17.9819277 8.7 17.9819277 9 18.5813253 9 18.5813253 9.3 19.1807229 9.3 19.1807229 9.6 19.7801205 9.6 19.7801205 9.9 20.3795181 9.9 20.3795181 10.2 20.9789157 10.2 20.9789157 10.5 21.5783133 10.5 21.5783133 10.8 22.1777108 10.8 22.1777108 11.1 22.7771084 11.1 22.7771084 11.4 23.376506 11.4 23.376506 11.7 23.9759036 11.7 23.9759036 12 24.5753012 12 24.5753012 12.3 25.1746988 12.3 25.1746988 12.6 25.7740964 12.6 25.7740964 12.9 26.373494 12.9 26.373494 13.2 26.9728916 13.2 26.9728916 13.5 27.5722892 13.5 27.5722892 13.8 28.1716867 13.8 28.1716867 14.1 28.7710843 14.1 28.7710843 14.4 29.3704819 14.4 29.3704819 14.7 29.9698795 14.7 29.9698795 15 30.5692771 15 30.5692771 15.3 31.1686747 15.3 31.1686747 15.6 31.7680723 15.6 31.7680723 15.9 32.3674699 15.9 32.3674699 16.2 32.9668675 16.2 32.9668675 16.5 33.5662651 16.5 33.5662651 16.8 34.1656627 16.8 34.1656627 17.1 34.7650602 17.1 34.7650602 17.4 35.3644578 17.4 35.3644578 17.7 35.9638554 17.7 35.9638554 18 36.563253 18 36.563253 18.3 37.1626506 18.3 37.1626506 18.6 37.7620482 18.6 37.7620482 18.9 38.3614458 18.9 38.3614458 19.2 38.9608434 19.2 38.9608434 19.5 39.560241 19.5 39.560241 19.8 40.1596386 19.8 40.1596386 20.1 40.7590361 20.1 40.7590361 20.4 41.3584337 20.4 41.3584337 20.7 41.9578313 20.7 41.9578313 21 42.5572289 21 42.5572289 21.3 43.1566265 21.3 43.1566265 21.6 43.7560241 21.6 43.7560241 21.9 44.3554217 21.9 44.3554217 22.2 44.9548193 22.2 44.9548193 22.5 45.5542169 22.5 45.5542169 22.8 46.1536145 22.8 46.1536145 23.1 46.753012 23.1 46.753012 23.4 47.3524096 23.4 47.3524096 23.7 47.9518072 23.7 47.9518072 24 48.5512048 24 48.5512048 24.3 49.1506024 24.3 49.1506024 24.6 49.75 24.6 49.75 24.9 50.3493976 24.9 50.3493976 25.2 50.9487952 25.2 50.9487952 25.5 51.5481928 25.5 51.5481928 25.8 52.1475904 25.8 52.1475904 26.1 52.746988 26.1 52.746988 26.4 53.3463855 26.4 53.3463855 26.7 53.9457831 26.7 53.9457831 27 54.5451807 27 54.5451807 27.3 55.1445783 27.3 55.1445783 27.6 55.7439759 27.6 55.7439759 27.9 56.3433735 27.9 56.3433735 28.2 56.9427711 28.2 56.9427711 28.5 57.5421687 28.5 57.5421687 28.8 58.1415663 28.8 58.1415663 29.1 58.7409639 29.1 58.7409639 29.4 59.3403614 29.4 59.3403614 29.7 59.939759 29.7 59.939759 30 60.5391566 30 60.5391566 30.3 61.1385542 30.3 61.1385542 30.6 61.7379518 30.6 61.7379518 30.9 62.3373494 30.9 62.3373494 31.2 62.936747 31.2 62.936747 31.5 63.5361446 31.5 63.5361446 31.8 64.1355422 31.8 64.1355422 32.1 64.7349398 32.1 64.7349398 32.4 65.3343373 32.4 65.3343373 32.7 65.9337349 32.7 65.9337349 33 66.5331325 33 66.5331325 33.3 67.1325301 33.3 67.1325301 33.6 67.7319277 33.6 67.7319277 33.9 68.3313253 33.9 68.3313253 34.2 68.9307229 34.2 68.9307229 34.5 69.5301205 34.5 69.5301205 34.8 70.1295181 34.8 70.1295181 35.1 70.7289157 35.1 70.7289157 35.4 71.3283133 35.4 71.3283133 35.7 71.9277108 35.7 71.9277108 36 72.5271084 36 72.5271084 36.3 73.126506 36.3 73.126506 36.6 73.7259036 36.6 73.7259036 36.9 74.3253012 36.9 74.3253012 37.2 74.9246988 37.2 74.9246988 37.5 75.5240964 37.5 75.5240964 37.8 76.123494 37.8 76.123494 38.1 76.7228916 38.1 76.7228916 38.4 77.3222892 38.4 77.3222892 38.7 77.9216867 38.7 77.9216867 39 78.5210843 39 78.5210843 39.3 79.1204819 39.3 79.1204819 39.6 79.7198795 39.6 79.7198795 39.9 80.3192771 39.9 80.3192771 40.2 80.9186747 40.2 80.9186747 40.5 81.5180723 40.5 81.5180723 40.8 82.1174699 40.8 82.1174699 41.1 82.7168675 41.1 82.7168675 41.4 83.3162651 41.4 83.3162651 41.7 83.9156627 41.7 83.9156627 42 84.5150602 42 84.5150602 42.3 85.1144578 42.3 85.1144578 42.6 85.7138554 42.6 85.7138554 42.9 86.313253 42.9 86.313253 43.2 86.9126506 43.2 86.9126506 43.5 87.5120482 43.5 87.5120482 43.8 88.1114458 43.8 88.1114458 44.1 88.7108434 44.1 88.7108434 44.4 89.310241 44.4 89.310241 44.7 89.9096386 44.7 89.9096386 45 90.5090361 45 90.5090361 45.3 91.1084337 45.3 91.1084337 45.6 91.7078313 45.6 91.7078313 45.9 92.3072289 45.9 92.3072289 46.2 92.9066265 46.2 92.9066265 46.5 93.5060241 46.5 93.5060241 46.8 94.1054217 46.8 94.1054217 47.1 94.7048193 47.1 94.7048193 47.4 95.3042169 47.4 95.3042169 47.7 95.9036145 47.7 95.9036145 48 96.503012 48 96.503012 48.3 97.1024096 48.3 97.1024096 48.6 97.7018072 48.6 97.7018072 48.9 98.3012048 48.9 98.3012048 49.2 98.9006024 49.2 98.9006024 49.5 99.5 49.5 99.5 49.8 100.099398 49.8 100.099398 50.1 100.698795 50.1 100.698795 50.4 101.298193 50.4 101.298193 50.7 101.89759 50.7 101.89759 51 102.496988 51 102.496988 51.3 103.096386 51.3 103.096386 51.6 103.695783 51.6 103.695783 51.9 104.295181 51.9 104.295181 52.2 104.894578 52.2 104.894578 52.5 105.493976 52.5 105.493976 52.8 106.093373 52.8 106.093373 53.1 106.692771 53.1 106.692771 53.4 107.292169 53.4 107.292169 53.7 107.891566 53.7 107.891566 54 108.490964 54 108.490964 54.3 109.090361 54.3 109.090361 54.6 109.689759 54.6 109.689759 54.9 110.289157 54.9 110.289157 55.2 110.888554 55.2 110.888554 55.5 111.487952 55.5 111.487952 55.8 112.087349 55.8 112.087349 56.1 112.686747 56.1 112.686747 56.4 113.286145 56.4 113.286145 56.7 113.885542 56.7 113.885542 57 114.48494 57 114.48494 57.3 115.084337 57.3 115.084337 57.6 115.683735 57.6 115.683735 57.9 116.283133 57.9 116.283133 58.2 116.88253 58.2 116.88253 58.5 117.481928 58.5 117.481928 58.8 118.081325 58.8 118.081325 59.1 118.680723 59.1 118.680723 59.4 119.28012 59.4 119.28012 59.7 119.879518 59.7 119.879518 60 120.478916 60 120.478916 60.3 121.078313 60.3 121.078313 60.6 121.677711 60.6 121.677711 60.9 122.277108 60.9 122.277108 61.2 122.876506 61.2 122.876506 61.5 123.475904 61.5 123.475904 61.8 124.075301 61.8 124.075301 62.1 124.674699 62.1 124.674699 62.4 125.274096 62.4 125.274096 62.7 125.873494 62.7 125.873494 63 126.472892 63 126.472892 63.3 127.072289 63.3 127.072289 63.6 127.671687 63.6 127.671687 63.9 128.271084 63.9 128.271084 64.2 128.870482 64.2 128.870482 64.5 129.46988 64.5 129.46988 64.8 130.069277 64.8 130.069277 65.1 130.668675 65.1 130.668675 65.4 131.268072 65.4 131.268072 65.7 131.86747 65.7 131.86747 66 132.466867 66 132.466867 66.3 133.066265 66.3 133.066265 66.6 133.665663 66.6 133.665663 66.9 134.26506 66.9 134.26506 67.2 134.864458 67.2 134.864458 67.5 135.463855 67.5 135.463855 67.8 136.063253 67.8 136.063253 68.1 136.662651 68.1 136.662651 68.4 137.262048 68.4 137.262048 68.7 137.861446 68.7 137.861446 69 138.460843 69 138.460843 69.3 139.060241 69.3 139.060241 69.6 139.659639 69.6 139.659639 69.9 140.259036 69.9 140.259036 70.2 140.858434 70.2 140.858434 70.5 141.457831 70.5 141.457831 70.8 142.057229 70.8 142.057229 71.1 142.656627 71.1 142.656627 71.4 143.256024 71.4 143.256024 71.7 143.855422 71.7 143.855422 72 144.454819 72 144.454819 72.3 145.054217 72.3 145.054217 72.6 145.653614 72.6 145.653614 72.9 146.253012 72.9 146.253012 73.2 146.85241 73.2 146.85241 73.5 147.451807 73.5 147.451807 73.8 148.051205 73.8 148.051205 74.1 148.650602 74.1 148.650602 74.4 149.25 74.4 149.25 74.7 149.849398 74.7 149.849398 75 150.448795 75 150.448795 75.3 151.048193 75.3 151.048193 75.6 151.64759 75.6 151.64759 75.9 152.246988 75.9 152.246988 76.2 152.846386 76.2 152.846386 76.5 153.445783 76.5 153.445783 76.8 154.045181 76.8 154.045181 77.1 154.644578 77.1 154.644578 77.4 155.243976 77.4 155.243976 77.7 155.843373 77.7 155.843373 78 156.442771 78 156.442771 78.3 157.042169 78.3 157.042169 78.6 157.641566 78.6 157.641566 78.9 158.240964 78.9 158.240964 79.2 158.840361 79.2 158.840361 79.5 159.439759 79.5 159.439759 79.8 160.039157 79.8 160.039157 80.1 160.638554 80.1 160.638554 80.4 161.237952 80.4 161.237952 80.7 161.837349 80.7 161.837349 81 162.436747 81 162.436747 81.3 163.036145 81.3 163.036145 81.6 163.635542 81.6 163.635542 81.9 164.23494 81.9 164.23494 82.2 164.834337 82.2 164.834337 82.5 165.433735 82.5 165.433735 82.8 166.033133 82.8 166.033133 83.1 166.63253 83.1 166.63253 83.4 167.231928 83.4 167.231928 83.7 167.831325 83.7 167.831325 84 168.430723 84 168.430723 84.3 169.03012 84.3 169.03012 84.6 169.629518 84.6 169.629518 84.9 170.228916 84.9 170.228916 85.2 170.828313 85.2 170.828313 85.5 171.427711 85.5 171.427711 85.8 172.027108 85.8 172.027108 86.1 172.626506 86.1 172.626506 86.4 173.225904 86.4 173.225904 86.7 173.825301 86.7 173.825301 87 174.424699 87 174.424699 87.3 175.024096 87.3 175.024096 87.6 175.623494 87.6 175.623494 87.9 176.222892 87.9 176.222892 88.2 176.822289 88.2 176.822289 88.5 177.421687 88.5 177.421687 88.8 178.021084 88.8 178.021084 89.1 178.620482 89.1 178.620482 89.4 179.21988 89.4 179.21988 89.7 179.819277 89.7 179.819277 90 180.418675 90 180.418675 90.3 181.018072 90.3 181.018072 90.6 181.61747 90.6 181.61747 90.9 182.216867 90.9 182.216867 91.2 182.816265 91.2 182.816265 91.5 183.415663 91.5 183.415663 91.8 184.01506 91.8 184.01506 92.1 184.614458 92.1 184.614458 92.4 185.213855 92.4 185.213855 92.7 185.813253 92.7 185.813253 93 186.412651 93 186.412651 93.3 187.012048 93.3 187.012048 93.6 187.611446 93.6 187.611446 93.9 188.210843 93.9 188.210843 94.2 188.810241 94.2 188.810241 94.5 189.409639 94.5 189.409639 94.8 190.009036 94.8 190.009036 95.1 190.608434 95.1 190.608434 95.4 191.207831 95.4 191.207831 95.7 191.807229 95.7 191.807229 96 192.406627 96 192.406627 96.3 193.006024 96.3 193.006024 96.6 193.605422 96.6 193.605422 96.9 194.204819 96.9 194.204819 97.2 194.804217 97.2 194.804217 97.5 195.403614 97.5 195.403614 97.8 196.003012 97.8 196.003012 98.1 196.60241 98.1 196.60241 98.4 197.201807 98.4 197.201807 98.7 197.801205 98.7 197.801205 99 198.400602 99 198.400602 99.3 199 99.3 199 99.9 197.801205 99.9 197.801205 100.2 196.902108 100.2 196.902108 100.5 196.003012 100.5 196.003012 100.8 195.103916 100.8 195.103916 101.1 194.204819 101.1 194.204819 101.4 193.006024 101.4 193.006024 101.7 192.106928 101.7 192.106928 102 191.207831 102 191.207831 102.3 190.308735 102.3 190.308735 102.6 189.409639 102.6 189.409639 102.9 188.210843 102.9 188.210843 103.2 187.311747 103.2 187.311747 103.5 186.412651 103.5 186.412651 103.8 185.513554 103.8 185.513554 104.1 184.614458 104.1 184.614458 104.4 183.415663 104.4 183.415663 104.7 182.516566 104.7 182.516566 105 181.61747 105 181.61747 105.3 180.718373 105.3 180.718373 105.6 179.819277 105.6 179.819277 105.9 178.620482 105.9 178.620482 106.2 177.721386 106.2 177.721386 106.5 176.822289 106.5 176.822289 106.8 175.923193 106.8 175.923193 107.1 175.024096 107.1 175.024096 107.4 173.825301 107.4 173.825301 107.7 172.926205 107.7 172.926205 108 172.027108 108 172.027108 108.3 171.128012 108.3 171.128012 108.6 170.228916 108.6 170.228916 108.9 169.03012 108.9 169.03012 109.2 168.131024 109.2 168.131024 109.5 167.231928 109.5 167.231928 109.8 166.332831 109.8 166.332831 110.1 165.433735 110.1 165.433735 110.4 164.23494 110.4 164.23494 110.7 163.335843 110.7 163.335843 111 162.436747 111 162.436747 111.3 161.537651 111.3 161.537651 111.6 160.638554 111.6 160.638554 111.9 159.439759 111.9 159.439759 112.2 158.540663 112.2 158.540663 112.5 157.641566 112.5 157.641566 112.8 156.74247 112.8 156.74247 113.1 155.843373 113.1 155.843373 113.4 154.944277 113.4 154.944277 113.7 153.745482 113.7 153.745482 114 152.846386 114 152.846386 114.3 151.947289 114.3 151.947289 114.6 151.048193 114.6 151.048193 114.9 150.149096 114.9 150.149096 115.2 148.950301 115.2 148.950301 115.5 148.051205 115.5 148.051205 115.8 147.152108 115.8 147.152108 116.1 146.253012 116.1 146.253012 116.4 145.353916 116.4 145.353916 116.7 144.15512 116.7 144.15512 117 143.256024 117 143.256024 117.3 142.356928 117.3 142.356928 117.6 141.457831 117.6 141.457831 117.9 140.558735 117.9 140.558735 118.2 139.35994 118.2 139.35994 118.5 138.460843 118.5 138.460843 118.8 137.561747 118.8 137.561747 119.1 136.662651 119.1 136.662651 119.4 135.763554 119.4 135.763554 119.7 134.564759 119.7 134.564759 120 133.665663 120 133.665663 120.3 132.766566 120.3 132.766566 120.6 131.86747 120.6 131.86747 120.9 130.968373 120.9 130.968373 121.2 130.668675 121.2 130.668675 120.9 130.368976 120.9 130.368976 120.6 130.069277 120.6 130.069277 120.3 129.769578 120.3 129.769578 120 129.46988 120 129.46988 119.7 129.170181 119.7 129.170181 119.4 128.570783 119.4 128.570783 119.1 128.271084 119.1 128.271084 118.8 127.971386 118.8 127.971386 118.5 127.671687 118.5 127.671687 118.2 127.371988 118.2 127.371988 117.9 127.072289 117.9 127.072289 117.6 126.77259 117.6 126.77259 117.3 126.173193 117.3 126.173193 117 125.873494 117 125.873494 116.7 125.573795 116.7 125.573795 116.4 125.274096 116.4 125.274096 116.1 124.974398 116.1 124.974398 115.8 124.674699 115.8 124.674699 115.5 124.375 115.5 124.375 115.2 123.775602 115.2 123.775602 114.9 123.475904 114.9 123.475904 114.6 123.176205 114.6 123.176205 114.3 122.876506 114.3 122.876506 114 122.576807 114 122.576807 113.7 122.277108 113.7 122.277108 113.4 121.97741 113.4 121.97741 113.1 121.378012 113.1 121.378012 112.8 121.078313 112.8 121.078313 112.5 120.778614 112.5 120.778614 112.2 120.478916 112.2 120.478916 111.9 120.179217 111.9 120.179217 111.6 119.879518 111.6 119.879518 111.3 119.579819 111.3 119.579819 111 118.980422 111 118.980422 110.7 118.680723 110.7 118.680723 110.4 118.381024 110.4 118.381024 110.1 118.081325 110.1 118.081325 109.8 117.781627 109.8 117.781627 109.5 117.481928 109.5 117.481928 109.2 117.182229 109.2 117.182229 108.9 116.582831 108.9 116.582831 108.6 116.283133 108.6 116.283133 108.3 115.983434 108.3 115.983434 108 115.683735 108 115.683735 107.7 115.384036 107.7 115.384036 107.4 115.084337 107.4 115.084337 107.1 114.784639 107.1 114.784639 106.8 114.48494 106.8 114.48494 106.5 113.885542 106.5 113.885542 106.2 113.585843 106.2 113.585843 105.9 113.286145 105.9 113.286145 105.6 112.986446 105.6 112.986446 105.3 112.686747 105.3 112.686747 105 112.387048 105 112.387048 104.7 112.087349 104.7 112.087349 104.4 111.487952 104.4 111.487952 104.1 111.188253 104.1 111.188253 103.8 110.888554 103.8 110.888554 103.5 110.588855 103.5 110.588855 103.2 110.289157 103.2 110.289157 102.9 109.989458 102.9 109.989458 102.6 109.689759 102.6 109.689759 102.3 109.090361 102.3 109.090361 102 108.790663 102 108.790663 101.7 108.490964 101.7 108.490964 101.4 108.191265 101.4 108.191265 101.1 107.891566 101.1 107.891566 100.8 107.591867 100.8 107.591867 100.5 107.292169 100.5 107.292169 100.2 106.692771 100.2 106.692771 99.9 106.393072 99.9 106.393072 99.6 106.093373 99.6 106.093373 99.3 105.793675 99.3 105.793675 99 105.493976 99 105.493976 98.7 105.194277 98.7 105.194277 98.4 104.894578 98.4 104.894578 98.1 104.295181 98.1 104.295181 97.8 103.995482 97.8 103.995482 97.5 103.695783 97.5 103.695783 97.2 103.396084 97.2 103.396084 96.9 103.096386 96.9 103.096386 96.6 102.796687 96.6 102.796687 96.3 102.496988 96.3 102.496988 96 101.89759 96 101.89759 95.7 101.597892 95.7 101.597892 95.4 101.298193 95.4 101.298193 95.1 100.998494 95.1 100.998494 94.8 100.698795 94.8 100.698795 94.5 100.399096 94.5 100.399096 94.2 100.099398 94.2 100.099398 93.9 99.5 93.9 99.5 93.6 99.2003012 93.6 99.2003012 93.3 98.9006024 93.3 98.9006024 93 98.6009036 93 98.6009036 92.7 98.3012048 92.7 98.3012048 92.4 98.001506 92.4 98.001506 92.1 97.7018072 92.1 97.7018072 91.8 97.1024096 91.8 97.1024096 91.5 96.8027108 91.5 96.8027108 91.2 96.503012 91.2 96.503012 90.9 96.2033133 90.9 96.2033133 90.6 95.9036145 90.6 95.9036145 90.3 95.6039157 90.3 95.6039157 90 95.3042169 90 95.3042169 89.7 95.0045181 89.7 95.0045181 89.4 94.4051205 89.4 94.4051205 89.1 94.1054217 89.1 94.1054217 88.8 93.8057229 88.8 93.8057229 88.5 93.5060241 88.5 93.5060241 88.2 93.2063253 88.2 93.2063253 87.9 92.9066265 87.9 92.9066265 87.6 92.6069277 87.6 92.6069277 87.3 92.0075301 87.3 92.0075301 87 91.7078313 87 91.7078313 86.7 91.4081325 86.7 91.4081325 86.4 91.1084337 86.4 91.1084337 86.1 90.8087349 86.1 90.8087349 85.8 90.5090361 85.8 90.5090361 85.5 90.2093373 85.5 90.2093373 85.2 89.6099398 85.2 89.6099398 84.9 89.310241 84.9 89.310241 84.6 89.0105422 84.6 89.0105422 84.3 88.7108434 84.3 88.7108434 84 88.4111446 84 88.4111446 83.7 88.1114458 83.7 88.1114458 83.4 87.811747 83.4 87.811747 83.1 87.2123494 83.1 87.2123494 82.8 86.9126506 82.8 86.9126506 82.5 86.6129518 82.5 86.6129518 82.2 86.313253 82.2 86.313253 81.9 86.0135542 81.9 86.0135542 81.6 85.7138554 81.6 85.7138554 81.3 85.4141566 81.3 85.4141566 81 84.814759 81 84.814759 80.7 84.5150602 80.7 84.5150602 80.4 84.2153614 80.4 84.2153614 80.1 83.9156627 80.1 83.9156627 79.8 83.6159639 79.8 83.6159639 79.5 83.3162651 79.5 83.3162651 79.2 83.0165663 79.2 83.0165663 78.9 82.4171687 78.9 82.4171687 78.6 82.1174699 78.6 82.1174699 78.3 81.8177711 78.3 81.8177711 78 81.5180723 78 81.5180723 77.7 81.2183735 77.7 81.2183735 77.4 80.9186747 77.4 80.9186747 77.1 80.6189759 77.1 80.6189759 76.8 80.0195783 76.8 80.0195783 76.5 79.7198795 76.5 79.7198795 76.2 79.4201807 76.2 79.4201807 75.9 79.1204819 75.9 79.1204819 75.6 78.8207831 75.6 78.8207831 75.3 78.5210843 75.3 78.5210843 75 78.2213855 75 78.2213855 74.7 77.621988 74.7 77.621988 74.4 77.3222892 74.4 77.3222892 74.1 77.0225904 74.1 77.0225904 73.8 76.7228916 73.8 76.7228916 73.5 76.4231928 73.5 76.4231928 73.2 76.123494 73.2 76.123494 72.9 75.8237952 72.9 75.8237952 72.6 75.5240964 72.6 75.5240964 72.3 74.9246988 72.3 74.9246988 72 74.625 72 74.625 71.7 74.3253012 71.7 74.3253012 71.4 74.0256024 71.4 74.0256024 71.1 73.7259036 71.1 73.7259036 70.8 73.4262048 70.8 73.4262048 70.5 73.126506 70.5 73.126506 70.2 72.5271084 70.2 72.5271084 69.9 72.2274096 69.9 72.2274096 69.6 71.9277108 69.6 71.9277108 69.3 71.628012 69.3 71.628012 69 71.3283133 69 71.3283133 68.7 71.0286145 68.7 71.0286145 68.4 70.7289157 68.4 70.7289157 68.1 70.1295181 68.1 70.1295181 67.8 69.8298193 67.8 69.8298193 67.5 69.5301205 67.5 69.5301205 67.2 69.2304217 67.2 69.2304217 66.9 68.9307229 66.9 68.9307229 66.6 68.6310241 66.6 68.6310241 66.3 68.3313253 66.3 68.3313253 66 67.7319277 66 67.7319277 65.7 67.4322289 65.7 67.4322289 65.4 67.1325301 65.4 67.1325301 65.1 66.8328313 65.1 66.8328313 64.8 66.5331325 64.8 66.5331325 64.5 66.2334337 64.5 66.2334337 64.2 65.9337349 64.2 65.9337349 63.9 65.3343373 63.9 65.3343373 63.6 65.0346386 63.6 65.0346386 63.3 64.7349398 63.3 64.7349398 63 64.435241 63 64.435241 62.7 64.1355422 62.7 64.1355422 62.4 63.8358434 62.4 63.8358434 62.1 63.5361446 62.1 63.5361446 61.8 62.936747 61.8 62.936747 61.5 62.6370482 61.5 62.6370482 61.2 62.3373494 61.2 62.3373494 60.9 62.0376506 60.9 62.0376506 60.6 61.7379518 60.6 61.7379518 60.3 61.438253 60.3 61.438253 60 61.1385542 60 61.1385542 59.7 60.5391566 59.7 60.5391566 59.4 60.2394578 59.4 60.2394578 59.1 59.939759 59.1 59.939759 58.8 59.6400602 58.8 59.6400602 58.5 59.3403614 58.5 59.3403614 58.2 59.0406627 58.2 59.0406627 57.9 58.7409639 57.9 58.7409639 57.6 58.1415663 57.6 58.1415663 57.3 57.8418675 57.3 57.8418675 57 57.5421687 57 57.5421687 56.7 57.2424699 56.7 57.2424699 56.4 56.9427711 56.4 56.9427711 56.1 56.6430723 56.1 56.6430723 55.8 56.3433735 55.8 56.3433735 55.5 56.0436747 55.5 56.0436747 55.2 55.4442771 55.2 55.4442771 54.9 55.1445783 54.9 55.1445783 54.6 54.8448795 54.6 54.8448795 54.3 54.5451807 54.3 54.5451807 54 54.2454819 54 54.2454819 53.7 53.9457831 53.7 53.9457831 53.4 53.6460843 53.4 53.6460843 53.1 53.0466867 53.1 53.0466867 52.8 52.746988 52.8 52.746988 52.5 52.4472892 52.5 52.4472892 52.2 52.1475904 52.2 52.1475904 51.9 51.8478916 51.9 51.8478916 51.6 51.5481928 51.6 51.5481928 51.3 51.248494 51.3 51.248494 51 50.6490964 51 50.6490964 50.7 50.3493976 50.7 50.3493976 50.4 50.0496988 50.4 50.0496988 50.1 49.75 50.1 49.75 49.8 49.4503012 49.8 49.4503012 49.5 49.1506024 49.5 49.1506024 49.2 48.8509036 49.2 48.8509036 48.9 48.251506 48.9 48.251506 48.6 47.9518072 48.6 47.9518072 48.3 47.6521084 48.3 47.6521084 48 47.3524096 48 47.3524096 47.7 47.0527108 47.7 47.0527108 47.4 46.753012 47.4 46.753012 47.1 46.4533133 47.1 46.4533133 46.8 45.8539157 46.8 45.8539157 47.1 46.1536145 47.1 46.1536145 47.7 46.4533133 47.7 46.4533133 48 46.753012 48 46.753012 48.3 47.0527108 48.3 47.0527108 48.6 47.3524096 48.6 47.3524096 48.9 47.6521084 48.9 47.6521084 49.5 47.9518072 49.5 47.9518072 49.8 48.251506 49.8 48.251506 50.1 48.5512048 50.1 48.5512048 50.4 48.8509036 50.4 48.8509036 51 49.1506024 51 49.1506024 51.3 49.4503012 51.3 49.4503012 51.6 49.75 51.6 49.75 51.9 50.0496988 51.9 50.0496988 52.2 50.3493976 52.2 50.3493976 52.8 50.6490964 52.8 50.6490964 53.1 50.9487952 53.1 50.9487952 53.4 51.248494 53.4 51.248494 53.7 51.5481928 53.7 51.5481928 54.3 51.8478916 54.3 51.8478916 54.6 52.1475904 54.6 52.1475904 54.9 52.4472892 54.9 52.4472892 55.2 52.746988 55.2 52.746988 55.5 53.0466867 55.5 53.0466867 56.1 53.3463855 56.1 53.3463855 56.4 53.6460843 56.4 53.6460843 56.7 53.9457831 56.7 53.9457831 57 54.2454819 57 54.2454819 57.6 54.5451807 57.6 54.5451807 57.9 54.8448795 57.9 54.8448795 58.2 55.1445783 58.2 55.1445783 58.5 55.4442771 58.5 55.4442771 58.8 55.7439759 58.8 55.7439759 59.4 56.0436747 59.4 56.0436747 59.7 56.3433735 59.7 56.3433735 60 56.6430723 60 56.6430723 60.3 56.9427711 60.3 56.9427711 60.9 57.2424699 60.9 57.2424699 61.2 57.5421687 61.2 57.5421687 61.5 57.8418675 61.5 57.8418675 61.8 58.1415663 61.8 58.1415663 62.1 58.4412651 62.1 58.4412651 62.7 58.7409639 62.7 58.7409639 63 59.0406627 63 59.0406627 63.3 59.3403614 63.3 59.3403614 63.6 59.6400602 63.6 59.6400602 63.9 59.939759 63.9 59.939759 64.5 60.2394578 64.5 60.2394578 64.8 60.5391566 64.8 60.5391566 65.1 60.8388554 65.1 60.8388554 65.4 61.1385542 65.4 61.1385542 66 61.438253 66 61.438253 66.3 61.7379518 66.3 61.7379518 66.6 62.0376506 66.6 62.0376506 66.9 62.3373494 66.9 62.3373494 67.2 62.6370482 67.2 62.6370482 67.8 62.936747 67.8 62.936747 68.1 63.2364458 68.1 63.2364458 68.4 63.5361446 68.4 63.5361446 68.7 63.8358434 68.7 63.8358434 69.3 64.1355422 69.3 64.1355422 69.6 64.435241 69.6 64.435241 69.9 64.7349398 69.9 64.7349398 70.2 65.0346386 70.2 65.0346386 70.5 65.3343373 70.5 65.3343373 71.1 65.6340361 71.1 65.6340361 71.4 65.9337349 71.4 65.9337349 71.7 66.2334337 71.7 66.2334337 72 66.5331325 72 66.5331325 72.6 66.8328313 72.6 66.8328313 72.9 67.1325301 72.9 67.1325301 73.2 67.4322289 73.2 67.4322289 73.5 67.7319277 73.5 67.7319277 73.8 68.0316265 73.8 68.0316265 74.4 68.3313253 74.4 68.3313253 74.7 68.6310241 74.7 68.6310241 75 68.9307229 75 68.9307229 75.3 69.2304217 75.3 69.2304217 75.6 69.5301205 75.6 69.5301205 76.2 69.8298193 76.2 69.8298193 76.5 70.1295181 76.5 70.1295181 76.8 70.4292169 76.8 70.4292169 77.1 70.7289157 77.1 70.7289157 77.7 71.0286145 77.7 71.0286145 78 71.3283133 78 71.3283133 78.3 71.628012 78.3 71.628012 78.6 71.9277108 78.6 71.9277108 78.9 72.2274096 78.9 72.2274096 79.5 72.5271084 79.5 72.5271084 79.8 72.8268072 79.8 72.8268072 80.1 73.126506 80.1 73.126506 80.4 73.4262048 80.4 73.4262048 81 73.7259036 81 73.7259036 81.3 74.0256024 81.3 74.0256024 81.6 74.3253012 81.6 74.3253012 81.9 74.625 81.9 74.625 82.2 74.9246988 82.2 74.9246988 82.8 75.2243976 82.8 75.2243976 83.1 75.5240964 83.1 75.5240964 83.4 75.8237952 83.4 75.8237952 83.7 76.123494 83.7 76.123494 84.3 76.4231928 84.3 76.4231928 84.6 76.7228916 84.6 76.7228916 84.9 77.0225904 84.9 77.0225904 85.2 77.3222892 85.2 77.3222892 85.5 77.621988 85.5 77.621988 86.1 77.9216867 86.1 77.9216867 86.4 78.2213855 86.4 78.2213855 86.7 78.5210843 86.7 78.5210843 87 78.8207831 87 78.8207831 87.3 79.1204819 87.3 79.1204819 87.9 79.4201807 87.9 79.4201807 88.2 79.7198795 88.2 79.7198795 88.5 80.0195783 88.5 80.0195783 88.8 80.3192771 88.8 80.3192771 89.4 80.6189759 89.4 80.6189759 89.7 80.9186747 89.7 80.9186747 90 81.2183735 90 81.2183735 90.3 81.5180723 90.3 81.5180723 90.6 81.8177711 90.6 81.8177711 91.2 82.1174699 91.2 82.1174699 91.5 82.4171687 91.5 82.4171687 91.8 82.7168675 91.8 82.7168675 92.1 83.0165663 92.1 83.0165663 92.7 83.3162651 92.7 83.3162651 93 83.6159639 93 83.6159639 93.3 83.9156627 93.3 83.9156627 93.6 84.2153614 93.6 84.2153614 93.9 84.5150602 93.9 84.5150602 94.5 84.814759 94.5 84.814759 94.8 85.1144578 94.8 85.1144578 95.1 85.4141566 95.1 85.4141566 95.4 85.7138554 95.4 85.7138554 96 86.0135542 96 86.0135542 96.3 86.313253 96.3 86.313253 96.6 86.6129518 96.6 86.6129518 96.9 86.9126506 96.9 86.9126506 97.2 87.2123494 97.2 87.2123494 97.8 87.5120482 97.8 87.5120482 98.1 87.811747 98.1 87.811747 98.4 88.1114458 98.4 88.1114458 98.7 88.4111446 98.7 88.4111446 99 88.7108434 99 88.7108434 99.6 89.0105422 99.6 89.0105422 99.9 89.310241 99.9 89.310241 100.2 89.6099398 100.2 89.6099398 100.5 89.9096386 100.5 89.9096386 101.1 90.2093373 101.1 90.2093373 101.4 90.5090361 101.4 90.5090361 101.7 90.8087349 101.7 90.8087349 102 91.1084337 102 91.1084337 102.3 91.4081325 102.3 91.4081325 102.9 91.7078313 102.9 91.7078313 103.2 92.0075301 103.2 92.0075301 103.5 92.3072289 103.5 92.3072289 103.8 92.6069277 103.8 92.6069277 104.4 92.9066265 104.4 92.9066265 104.7 93.2063253 104.7 93.2063253 105 93.5060241 105 93.5060241 105.3 93.8057229 105.3 93.8057229 105.6 94.1054217 105.6 94.1054217 106.2 94.4051205 106.2 94.4051205 106.5 94.7048193 106.5 94.7048193 106.8 95.0045181 106.8 95.0045181 107.1 95.3042169 107.1 95.3042169 107.7 95.6039157 107.7 95.6039157 108 95.9036145 108 95.9036145 108.3 96.2033133 108.3 96.2033133 108.6 96.503012 108.6 96.503012 108.9 96.8027108 108.9 96.8027108 109.5 97.1024096 109.5 97.1024096 109.8 97.4021084 109.8 97.4021084 110.1 97.7018072 110.1 97.7018072 110.4 98.001506 110.4 98.001506 111 98.3012048 111 98.3012048 111.3 98.6009036 111.3 98.6009036 111.6 98.9006024 111.6 98.9006024 111.9 99.2003012 111.9 99.2003012 112.2 99.5 112.2 99.5 112.8 99.7996988 112.8 99.7996988 113.1 100.099398 113.1 100.099398 113.4 100.399096 113.4 100.399096 113.7 100.698795 113.7 100.698795 114 100.998494 114 100.998494 114.6 101.298193 114.6 101.298193 114.9 101.597892 114.9 101.597892 115.2 101.89759 115.2 101.89759 115.5 102.197289 115.5 102.197289 116.1 102.496988 116.1 102.496988 116.4 102.796687 116.4 102.796687 116.7 103.096386 116.7 103.096386 117 103.396084 117 103.396084 117.3 103.695783 117.3 103.695783 117.9 103.995482 117.9 103.995482 118.2 104.295181 118.2 104.295181 118.5 104.59488 118.5 104.59488 118.8 104.894578 118.8 104.894578 119.4 105.194277 119.4 105.194277 119.7 105.493976 119.7 105.493976 120 105.793675 120 105.793675 120.3 106.093373 120.3 106.093373 120.6 106.393072 120.6 106.393072 121.2 106.692771 121.2 106.692771 121.5 106.99247 121.5 106.99247 121.8 107.292169 121.8 107.292169 122.1 107.591867 122.1 107.591867 122.7 107.891566 122.7 107.891566 123 108.191265 123 108.191265 123.3 108.490964 123.3 108.490964 123.6 108.790663 123.6 108.790663 123.9 109.090361 123.9 109.090361 124.5 109.39006 124.5 109.39006 124.8 109.689759 124.8 109.689759 125.1 109.989458 125.1 109.989458 125.4 110.289157 125.4 110.289157 125.7 110.588855 125.7 110.588855 126.3 110.888554 126.3 110.888554 126.6 111.188253 126.6 111.188253 126.9 110.888554 126.9 110.888554 127.2 109.989458 127.2 109.989458 127.5 109.090361 127.5 109.090361 127.8 108.191265 127.8 108.191265 128.1 107.292169 128.1 107.292169 128.4 106.393072 128.4 106.393072 128.7 105.194277 128.7 105.194277 129 104.295181 129 104.295181 129.3 103.396084 129.3 103.396084 129.6 102.496988 129.6 102.496988 129.9 101.597892 129.9 101.597892 130.2 100.698795 130.2 100.698795 130.5 99.7996988 130.5 99.7996988 130.8 98.6009036 130.8 98.6009036 131.1 97.7018072 131.1 97.7018072 131.4 96.8027108 131.4 96.8027108 131.7 95.9036145 131.7 95.9036145 132 95.0045181 132 95.0045181 132.3 94.1054217 132.3 94.1054217 132.6 93.2063253 132.6 93.2063253 132.9 92.0075301 132.9 92.0075301 133.2 91.1084337 133.2 91.1084337 133.5 90.2093373 133.5 90.2093373 133.8 89.310241 133.8 89.310241 134.1 88.4111446 134.1 88.4111446 134.4 87.5120482 134.4 87.5120482 134.7 86.6129518 134.7 86.6129518 135 85.7138554 135 85.7138554 135.3 84.5150602 135.3 84.5150602 135.6 83.6159639 135.6 83.6159639 135.9 82.7168675 135.9 82.7168675 136.2 81.8177711 136.2 81.8177711 136.5 80.9186747 136.5 80.9186747 136.8 80.0195783 136.8 80.0195783 137.1 79.1204819 137.1 79.1204819 137.4 77.9216867 137.4 77.9216867 137.7 77.0225904 137.7 77.0225904 138 76.123494 138 76.123494 138.3 75.2243976 138.3 75.2243976 138.6 74.3253012 138.6 74.3253012 138.9 73.4262048 138.9 73.4262048 139.2 72.5271084 139.2 72.5271084 139.5 71.3283133 139.5 71.3283133 139.8 70.4292169 139.8 70.4292169 140.1 69.5301205 140.1 69.5301205 140.4 68.6310241 140.4 68.6310241 140.7 67.7319277 140.7 67.7319277 141 66.8328313 141 66.8328313 141.3 65.9337349 141.3 65.9337349 141.6 65.0346386 141.6 65.0346386 141.9 63.8358434 141.9 63.8358434 142.2 62.936747 142.2 62.936747 142.5 62.0376506 142.5 62.0376506 142.8 61.1385542 142.8 61.1385542 143.1 60.2394578 143.1 60.2394578 143.4 59.3403614 143.4 59.3403614 143.7 58.4412651 143.7 58.4412651 144 57.2424699 144 57.2424699 144.3 56.3433735 144.3 56.3433735 144.6 55.4442771 144.6 55.4442771 144.9 54.5451807 144.9 54.5451807 145.2 53.6460843 145.2 53.6460843 145.5 52.746988 145.5 52.746988 145.8 51.8478916 145.8 51.8478916 146.1 50.6490964 146.1 50.6490964 146.4 49.75 146.4 49.75 146.7 48.8509036 146.7 48.8509036 147 47.9518072 147 47.9518072 147.3 47.0527108 147.3 47.0527108 147.6 46.1536145 147.6 46.1536145 147.9 45.2545181 147.9 45.2545181 148.2 44.3554217 148.2 44.3554217 148.5 43.1566265 148.5 43.1566265 148.8 42.2575301 148.8 42.2575301 149.1 41.3584337 149.1 41.3584337 149.4 40.4593373 149.4 40.4593373 149.7 39.560241 149.7 39.560241 150 38.6611446 150 38.6611446 150.3 37.7620482 150.3 37.7620482 149.4 37.4623494 149.4 37.4623494 148.2 37.1626506 148.2 37.1626506 147 36.8629518 147 36.8629518 145.8 36.563253 145.8 36.563253 144.6 36.2635542 144.6 36.2635542 143.4 35.9638554 143.4 35.9638554 142.2 35.6641566 142.2 35.6641566 141 35.3644578 141 35.3644578 139.8 35.064759 139.8 35.064759 138.6 34.7650602 138.6 34.7650602 137.4 34.4653614 137.4 34.4653614 136.2 34.1656627 136.2 34.1656627 135 33.8659639 135 33.8659639 133.8 33.5662651 133.8 33.5662651 132.6 33.2665663 132.6 33.2665663 131.4 32.9668675 131.4 32.9668675 130.2 32.6671687 130.2 32.6671687 129 32.3674699 129 32.3674699 127.8 32.0677711 127.8 32.0677711 126.6 31.7680723 126.6 31.7680723 125.4 31.4683735 125.4 31.4683735 124.2 31.1686747 124.2 31.1686747 123 30.8689759 123 30.8689759 121.8 30.5692771 121.8 30.5692771 120.6 30.2695783 120.6 30.2695783 119.4 29.9698795 119.4 29.9698795 118.2 29.6701807 118.2 29.6701807 117 29.3704819 117 29.3704819 115.8 29.0707831 115.8 29.0707831 114.6 28.7710843 114.6 28.7710843 113.4 28.4713855 113.4 28.4713855 112.2 28.1716867 112.2 28.1716867 111 27.871988 111 27.871988 110.1 27.5722892 110.1 27.5722892 108.9 27.2725904 108.9 27.2725904 107.7 26.9728916 107.7 26.9728916 106.5 26.6731928 106.5 26.6731928 105.3 26.373494 105.3 26.373494 104.1 26.0737952 104.1 26.0737952 102.9 25.7740964 102.9 25.7740964 101.7 25.4743976 101.7 25.4743976 100.5 25.1746988 100.5 25.1746988 99.3 24.875 99.3 24.875 98.1 24.5753012 98.1 24.5753012 96.9 24.2756024 96.9 24.2756024 95.7 23.9759036 95.7 23.9759036 94.5 23.6762048 94.5 23.6762048 93.3 23.376506 93.3 23.376506 92.1 23.0768072 92.1 23.0768072 90.9 22.7771084 90.9 22.7771084 89.7 22.4774096 89.7 22.4774096 88.5 22.1777108 88.5 22.1777108 87.3 21.878012 87.3 21.878012 86.1 21.5783133 86.1 21.5783133 84.9 21.2786145 84.9 21.2786145 83.7 20.9789157 83.7 20.9789157 82.5 20.6792169 82.5 20.6792169 81.3 20.3795181 81.3 20.3795181 80.1 20.0798193 80.1 20.0798193 78.9 19.7801205 78.9 19.7801205 77.7 19.4804217 77.7 19.4804217 76.5 19.1807229 76.5 19.1807229 75.3 18.8810241 75.3 18.8810241 74.1 18.5813253 74.1 18.5813253 72.9 18.2816265 72.9 18.2816265 72 17.9819277 72 17.9819277 70.8 17.6822289 70.8 17.6822289 69.6 17.3825301 69.6 17.3825301 68.4 17.0828313 68.4 17.0828313 67.2 16.7831325 67.2 16.7831325 66 16.4834337 66 16.4834337 64.8 16.1837349 64.8 16.1837349 63.6 15.8840361 63.6 15.8840361 62.4 15.5843373 62.4 15.5843373 61.2 15.2846386 61.2 15.2846386 60 14.9849398 60 14.9849398 58.8 14.685241 58.8 14.685241 57.6 14.3855422 57.6 14.3855422 56.4 14.0858434 56.4 14.0858434 55.2 13.7861446 55.2 13.7861446 54 13.4864458 54 13.4864458 52.8 13.186747 52.8 13.186747 51.6 12.8870482 51.6 12.8870482 50.4 12.5873494 50.4 12.5873494 49.2 12.2876506 49.2 12.2876506 48 11.9879518 48 11.9879518 46.8 11.688253 46.8 11.688253 45.6 11.3885542 45.6 11.3885542 44.4 11.0888554 44.4 11.0888554 43.2 10.7891566 43.2 10.7891566 42 10.4894578 42 10.4894578 40.8 10.189759 40.8 10.189759 39.6 9.89006024 39.6 9.89006024 38.4 9.59036145 38.4 9.59036145 37.2 9.29066265 37.2 9.29066265 36 8.99096386 36 8.99096386 34.8 8.69126506 34.8 8.69126506 33.9 8.39156627 33.9 8.39156627 32.7 8.09186747 32.7 8.09186747 31.5 7.79216867 31.5 7.79216867 30.3 7.49246988 30.3 7.49246988 29.1 7.19277108 29.1 7.19277108 27.9 6.89307229 27.9 6.89307229 26.7 6.59337349 26.7 6.59337349 25.5 6.2936747 25.5 6.2936747 24.3 5.9939759 24.3 5.9939759 23.1 5.69427711 23.1 5.69427711 21.9 5.39457831 21.9 5.39457831 20.7 5.09487952 20.7 5.09487952 19.5 4.79518072 19.5 4.79518072 18.3 4.49548193 18.3 4.49548193 17.1 4.19578313 17.1 4.19578313 15.9 3.89608434 15.9 3.89608434 14.7 3.59638554 14.7 3.59638554 13.5 3.29668675 13.5 3.29668675 12.3 2.99698795 12.3 2.99698795 11.1 2.69728916 11.1 2.69728916 9.9 2.39759036 9.9 2.39759036 8.7 2.09789157 8.7 2.09789157 7.5 1.79819277 7.5 1.79819277 6.3 1.49849398 6.3 1.49849398 5.1 1.19879518 5.1 1.19879518 3.9 0.899096386 3.9 0.899096386 2.7 0.59939759 2.7 0.59939759 1.5 0.299698795 1.5 0.299698795 0.3 0 0.3 0 0 0.59939759 0 0.59939759 0.3 1.19879518 0.3 1.19879518 0.6 1.79819277 0.6 1.79819277 0.9 2.39759036 0.9 2.39759036 1.2 2.99698795 1.2 2.99698795 1.5 3.59638554 1.5 3.59638554 1.8 4.19578313 1.8 4.19578313 2.1 4.79518072 2.1 4.79518072 2.4 5.39457831 2.4 5.39457831 2.7 5.9939759 2.7 5.9939759 3"></polygon>
            <polygon id="Shape" points="112.686747 178.5 112.686747 178.2 112.387048 178.2 112.387048 177.6 112.087349 177.6 112.087349 177.3 111.787651 177.3 111.787651 177 111.487952 177 111.487952 176.4 111.188253 176.4 111.188253 176.1 110.888554 176.1 110.888554 175.5 110.588855 175.5 110.588855 175.2 110.289157 175.2 110.289157 174.9 109.989458 174.9 109.989458 174.3 109.689759 174.3 109.689759 174 109.39006 174 109.39006 173.4 109.090361 173.4 109.090361 173.1 108.790663 173.1 108.790663 172.8 108.490964 172.8 108.490964 172.2 108.191265 172.2 108.191265 171.9 107.891566 171.9 107.891566 171.3 107.591867 171.3 107.591867 171 107.292169 171 107.292169 170.4 106.99247 170.4 106.99247 170.1 106.692771 170.1 106.692771 169.8 106.393072 169.8 106.393072 169.2 106.093373 169.2 106.093373 168.9 105.793675 168.9 105.793675 168.3 105.493976 168.3 105.493976 168 105.194277 168 105.194277 167.7 104.894578 167.7 104.894578 167.1 104.59488 167.1 104.59488 166.8 104.295181 166.8 104.295181 166.2 103.995482 166.2 103.995482 165.9 103.695783 165.9 103.695783 165.6 103.396084 165.6 103.396084 165 103.096386 165 103.096386 164.7 102.796687 164.7 102.796687 164.1 102.496988 164.1 102.496988 163.8 102.197289 163.8 102.197289 163.2 101.89759 163.2 101.89759 162.9 101.597892 162.9 101.597892 162.6 101.298193 162.6 101.298193 162 100.998494 162 100.998494 161.7 100.698795 161.7 100.698795 161.1 100.399096 161.1 100.399096 160.8 100.099398 160.8 100.099398 160.5 99.7996988 160.5 99.7996988 159.9 99.5 159.9 99.5 159.6 99.2003012 159.6 99.2003012 159 98.9006024 159 98.9006024 158.7 98.6009036 158.7 98.6009036 158.4 98.3012048 158.4 98.3012048 157.8 98.001506 157.8 98.001506 157.5 97.7018072 157.5 97.7018072 156.9 97.4021084 156.9 97.4021084 156.6 97.1024096 156.6 97.1024096 156 96.8027108 156 96.8027108 155.7 96.503012 155.7 96.503012 155.4 96.2033133 155.4 96.2033133 154.8 95.9036145 154.8 95.9036145 154.5 95.6039157 154.5 95.6039157 153.9 95.3042169 153.9 95.3042169 153.6 95.0045181 153.6 95.0045181 153.3 94.7048193 153.3 94.7048193 152.7 94.4051205 152.7 94.4051205 152.4 94.1054217 152.4 94.1054217 151.8 93.8057229 151.8 93.8057229 151.5 93.5060241 151.5 93.5060241 151.2 93.2063253 151.2 93.2063253 150.6 92.9066265 150.6 92.9066265 150.3 92.6069277 150.3 92.6069277 149.7 92.3072289 149.7 92.3072289 149.4 92.0075301 149.4 92.0075301 148.8 91.7078313 148.8 91.7078313 148.5 91.4081325 148.5 91.4081325 148.2 91.1084337 148.2 91.1084337 147.6 90.8087349 147.6 90.8087349 147.3 90.5090361 147.3 90.5090361 146.7 90.2093373 146.7 90.2093373 146.4 89.9096386 146.4 89.9096386 146.1 90.5090361 146.1 90.5090361 145.8 91.4081325 145.8 91.4081325 145.5 92.6069277 145.5 92.6069277 145.2 93.5060241 145.2 93.5060241 144.9 94.4051205 144.9 94.4051205 144.6 95.6039157 144.6 95.6039157 144.3 96.503012 144.3 96.503012 144 97.4021084 144 97.4021084 143.7 98.6009036 143.7 98.6009036 143.4 99.5 143.4 99.5 143.1 100.698795 143.1 100.698795 142.8 101.597892 142.8 101.597892 142.5 102.496988 142.5 102.496988 142.2 103.695783 142.2 103.695783 141.9 104.59488 141.9 104.59488 141.6 105.493976 141.6 105.493976 141.3 106.692771 141.3 106.692771 141 107.591867 141 107.591867 140.7 108.790663 140.7 108.790663 140.4 109.689759 140.4 109.689759 140.1 110.588855 140.1 110.588855 139.8 111.787651 139.8 111.787651 139.5 112.686747 139.5 112.686747 139.2 113.585843 139.2 113.585843 138.9 113.885542 138.9 113.885542 180 113.585843 180 113.585843 179.4 113.286145 179.4 113.286145 179.1 112.986446 179.1 112.986446 178.5"></polygon>
        </g>
    </g>
</svg>
